SplineFontDB: 3.2
FontName: arrivaltime
FullName: arrivaltime
FamilyName: arrivaltime
Weight: Medium
Copyright: JordanLoeser
Version: 001.000
ItalicAngle: 0
UnderlinePosition: -153
UnderlineWidth: 51
Ascent: 866
Descent: 158
InvalidEm: 0
sfntRevision: 0x00010000
LayerCount: 2
Layer: 0 1 "Back" 1
Layer: 1 1 "Fore" 0
XUID: [1021 452 -1686439052 3678747]
StyleMap: 0x0040
FSType: 0
OS2Version: 1
OS2_WeightWidthSlopeOnly: 0
OS2_UseTypoMetrics: 0
CreationTime: 1280473793
ModificationTime: 1696213185
PfmFamily: 17
TTFWeight: 500
TTFWidth: 5
LineGap: 79
VLineGap: 0
Panose: 2 0 6 3 0 0 0 0 0 0
OS2TypoAscent: 866
OS2TypoAOffset: 0
OS2TypoDescent: -158
OS2TypoDOffset: 0
OS2TypoLinegap: 79
OS2WinAscent: 866
OS2WinAOffset: 0
OS2WinDescent: 237
OS2WinDOffset: 0
HheadAscent: 866
HheadAOffset: 0
HheadDescent: -158
HheadDOffset: 0
OS2SubXSize: 665
OS2SubYSize: 716
OS2SubXOff: 0
OS2SubYOff: 143
OS2SupXSize: 665
OS2SupYSize: 716
OS2SupXOff: 0
OS2SupYOff: 491
OS2StrikeYSize: 51
OS2StrikeYPos: 265
OS2Vendor: '2ttf'
OS2CodePages: 00000001.00000000
OS2UnicodeRanges: 00000003.00000000.00000000.00000000
MarkAttachClasses: 1
DEI: 91125
ShortTable: cvt  2
  34
  648
EndShort
ShortTable: maxp 16
  1
  0
  74
  72
  3
  0
  0
  2
  0
  1
  1
  0
  64
  46
  0
  0
EndShort
LangName: 1033 "" "" "" "JordanLoeser:arrivaltime"
GaspTable: 1 65535 0 0
Encoding: UnicodeBmp
UnicodeInterp: none
NameList: AGL For New Fonts
DisplaySize: -48
AntiAlias: 1
FitToEm: 0
WinInfo: 64 16 4
BeginChars: 65539 74

StartChar: .notdef
Encoding: 65536 -1 0
Width: 460
GlyphClass: 1
Flags: W
LayerCount: 2
Fore
SplineSet
42 0 m 1,0,-1
 42 839 l 1,1,-1
 376 839 l 1,2,-1
 376 0 l 1,3,-1
 42 0 l 1,0,-1
84 42 m 1,4,-1
 335 42 l 1,5,-1
 335 797 l 1,6,-1
 84 797 l 1,7,-1
 84 42 l 1,4,-1
EndSplineSet
EndChar

StartChar: exclam
Encoding: 33 33 4
Width: 236
GlyphClass: 2
Flags: W
LayerCount: 2
Fore
SplineSet
79 0 m 1,0,-1
 0 0 l 1,1,-1
 0 79 l 1,2,-1
 0 157 l 1,3,-1
 79 157 l 1,4,-1
 157 157 l 1,5,-1
 157 79 l 1,6,-1
 157 0 l 1,7,-1
 79 0 l 1,0,-1
79 236 m 1,8,-1
 0 236 l 1,9,-1
 0 315 l 1,10,-1
 0 394 l 1,11,-1
 0 472 l 1,12,-1
 0 551 l 1,13,-1
 0 630 l 1,14,-1
 0 708 l 1,15,-1
 0 787 l 1,16,-1
 0 866 l 1,17,-1
 79 866 l 1,18,-1
 157 866 l 1,19,-1
 157 787 l 1,20,-1
 157 708 l 1,21,-1
 157 630 l 1,22,-1
 157 551 l 1,23,-1
 157 472 l 1,24,-1
 157 394 l 1,25,-1
 157 315 l 1,26,-1
 157 236 l 1,27,-1
 79 236 l 1,8,-1
EndSplineSet
EndChar

StartChar: quotedbl
Encoding: 34 34 5
Width: 472
GlyphClass: 2
Flags: W
LayerCount: 2
Fore
SplineSet
315 472 m 1,0,-1
 315 551 l 1,1,-1
 236 551 l 1,2,-1
 236 630 l 1,3,-1
 236 708 l 1,4,-1
 236 787 l 1,5,-1
 236 866 l 1,6,-1
 315 866 l 1,7,-1
 394 866 l 1,8,-1
 394 787 l 1,9,-1
 394 708 l 1,10,-1
 394 630 l 1,11,-1
 394 551 l 1,12,-1
 394 472 l 1,13,-1
 315 472 l 1,0,-1
79 472 m 1,14,-1
 79 551 l 1,15,-1
 0 551 l 1,16,-1
 0 630 l 1,17,-1
 0 708 l 1,18,-1
 0 787 l 1,19,-1
 0 866 l 1,20,-1
 79 866 l 1,21,-1
 157 866 l 1,22,-1
 157 787 l 1,23,-1
 157 708 l 1,24,-1
 157 630 l 1,25,-1
 157 551 l 1,26,-1
 157 472 l 1,27,-1
 79 472 l 1,14,-1
EndSplineSet
EndChar

StartChar: numbersign
Encoding: 35 35 6
Width: 708
GlyphClass: 2
Flags: W
LayerCount: 2
Fore
SplineSet
472 0 m 1,0,-1
 394 0 l 1,1,-1
 394 79 l 1,2,-1
 394 157 l 1,3,-1
 315 157 l 1,4,-1
 236 157 l 1,5,-1
 236 79 l 1,6,-1
 236 0 l 1,7,-1
 157 0 l 1,8,-1
 79 0 l 1,9,-1
 79 79 l 1,10,-1
 79 157 l 1,11,-1
 0 157 l 1,12,-1
 0 236 l 1,13,-1
 0 315 l 1,14,-1
 79 315 l 1,15,-1
 79 394 l 1,16,-1
 79 472 l 1,17,-1
 79 551 l 1,18,-1
 0 551 l 1,19,-1
 0 630 l 1,20,-1
 0 708 l 1,21,-1
 79 708 l 1,22,-1
 79 787 l 1,23,-1
 79 866 l 1,24,-1
 157 866 l 1,25,-1
 236 866 l 1,26,-1
 236 787 l 1,27,-1
 236 708 l 1,28,-1
 315 708 l 1,29,-1
 394 708 l 1,30,-1
 394 787 l 1,31,-1
 394 866 l 1,32,-1
 472 866 l 1,33,-1
 551 866 l 1,34,-1
 551 787 l 1,35,-1
 551 708 l 1,36,-1
 630 708 l 1,37,-1
 630 630 l 1,38,-1
 630 551 l 1,39,-1
 551 551 l 1,40,-1
 551 472 l 1,41,-1
 551 394 l 1,42,-1
 551 315 l 1,43,-1
 630 315 l 1,44,-1
 630 236 l 1,45,-1
 630 157 l 1,46,-1
 551 157 l 1,47,-1
 551 79 l 1,48,-1
 551 0 l 1,49,-1
 472 0 l 1,0,-1
315 315 m 1,50,-1
 394 315 l 1,51,-1
 394 394 l 1,52,-1
 394 472 l 1,53,-1
 394 551 l 1,54,-1
 315 551 l 1,55,-1
 236 551 l 1,56,-1
 236 472 l 1,57,-1
 236 394 l 1,58,-1
 236 315 l 1,59,-1
 315 315 l 1,50,-1
EndSplineSet
EndChar

StartChar: dollar
Encoding: 36 36 7
Width: 629
GlyphClass: 2
Flags: W
LayerCount: 2
Fore
SplineSet
315 -157 m 1,0,-1
 315 -79 l 1,1,-1
 236 -79 l 1,2,-1
 236 -157 l 1,3,-1
 157 -157 l 1,4,-1
 157 -79 l 1,5,-1
 79 -79 l 1,6,-1
 79 0 l 1,7,-1
 0 0 l 1,8,-1
 0 79 l 1,9,-1
 0 157 l 1,10,-1
 0 236 l 1,11,-1
 79 236 l 1,12,-1
 157 236 l 1,13,-1
 157 157 l 1,14,-1
 157 79 l 1,15,-1
 236 79 l 1,16,-1
 315 79 l 1,17,-1
 394 79 l 1,18,-1
 394 157 l 1,19,-1
 394 236 l 1,20,-1
 315 236 l 1,21,-1
 315 315 l 1,22,-1
 236 315 l 1,23,-1
 157 315 l 1,24,-1
 79 315 l 1,25,-1
 79 394 l 1,26,-1
 0 394 l 1,27,-1
 0 472 l 1,28,-1
 0 551 l 1,29,-1
 0 630 l 1,30,-1
 0 708 l 1,31,-1
 79 708 l 1,32,-1
 79 787 l 1,33,-1
 157 787 l 1,34,-1
 157 866 l 1,35,-1
 236 866 l 1,36,-1
 236 787 l 1,37,-1
 315 787 l 1,38,-1
 315 866 l 1,39,-1
 394 866 l 1,40,-1
 394 787 l 1,41,-1
 472 787 l 1,42,-1
 472 708 l 1,43,-1
 551 708 l 1,44,-1
 551 630 l 1,45,-1
 551 551 l 1,46,-1
 551 472 l 1,47,-1
 472 472 l 1,48,-1
 394 472 l 1,49,-1
 394 551 l 1,50,-1
 394 630 l 1,51,-1
 315 630 l 1,52,-1
 236 630 l 1,53,-1
 157 630 l 1,54,-1
 157 551 l 1,55,-1
 157 472 l 1,56,-1
 236 472 l 1,57,-1
 315 472 l 1,58,-1
 315 394 l 1,59,-1
 394 394 l 1,60,-1
 472 394 l 1,61,-1
 472 315 l 1,62,-1
 551 315 l 1,63,-1
 551 236 l 1,64,-1
 551 157 l 1,65,-1
 551 79 l 1,66,-1
 551 0 l 1,67,-1
 472 0 l 1,68,-1
 472 -79 l 1,69,-1
 394 -79 l 1,70,-1
 394 -157 l 1,71,-1
 315 -157 l 1,0,-1
EndSplineSet
EndChar

StartChar: hyphen
Encoding: 45 45 8
Width: 472
GlyphClass: 2
Flags: W
LayerCount: 2
Fore
SplineSet
315 394 m 1,0,-1
 394 394 l 1,1,-1
 394 315 l 1,2,-1
 315 315 l 1,3,-1
 236 315 l 1,4,-1
 157 315 l 1,5,-1
 79 315 l 1,6,-1
 0 315 l 1,7,-1
 0 394 l 1,8,-1
 79 394 l 1,9,-1
 157 394 l 1,10,-1
 236 394 l 1,11,-1
 315 394 l 1,0,-1
EndSplineSet
EndChar

StartChar: period
Encoding: 46 46 9
Width: 236
GlyphClass: 2
Flags: W
LayerCount: 2
Fore
SplineSet
79 0 m 1,0,-1
 0 0 l 1,1,-1
 0 79 l 1,2,-1
 0 157 l 1,3,-1
 79 157 l 1,4,-1
 157 157 l 1,5,-1
 157 79 l 1,6,-1
 157 0 l 1,7,-1
 79 0 l 1,0,-1
EndSplineSet
EndChar

StartChar: zero
Encoding: 48 48 10
Width: 551
GlyphClass: 2
Flags: W
LayerCount: 2
Fore
SplineSet
315 0 m 1,0,-1
 236 0 l 1,1,-1
 157 0 l 1,2,-1
 79 0 l 1,3,-1
 79 79 l 1,4,-1
 0 79 l 1,5,-1
 0 157 l 1,6,-1
 0 236 l 1,7,-1
 0 315 l 1,8,-1
 0 394 l 1,9,-1
 0 472 l 1,10,-1
 0 551 l 1,11,-1
 0 630 l 1,12,-1
 0 708 l 1,13,-1
 0 787 l 1,14,-1
 79 787 l 1,15,-1
 79 866 l 1,16,-1
 157 866 l 1,17,-1
 236 866 l 1,18,-1
 315 866 l 1,19,-1
 394 866 l 1,20,-1
 394 787 l 1,21,-1
 472 787 l 1,22,-1
 472 708 l 1,23,-1
 472 630 l 1,24,-1
 472 551 l 1,25,-1
 472 472 l 1,26,-1
 472 394 l 1,27,-1
 472 315 l 1,28,-1
 472 236 l 1,29,-1
 472 157 l 1,30,-1
 472 79 l 1,31,-1
 394 79 l 1,32,-1
 394 0 l 1,33,-1
 315 0 l 1,0,-1
236 79 m 1,34,-1
 315 79 l 1,35,-1
 315 157 l 1,36,-1
 315 236 l 1,37,-1
 315 315 l 1,38,-1
 315 394 l 1,39,-1
 315 472 l 1,40,-1
 315 551 l 1,41,-1
 315 630 l 1,42,-1
 315 708 l 1,43,-1
 315 787 l 1,44,-1
 236 787 l 1,45,-1
 157 787 l 1,46,-1
 157 708 l 1,47,-1
 157 630 l 1,48,-1
 157 551 l 1,49,-1
 157 472 l 1,50,-1
 157 394 l 1,51,-1
 157 315 l 1,52,-1
 157 236 l 1,53,-1
 157 157 l 1,54,-1
 157 79 l 1,55,-1
 236 79 l 1,34,-1
EndSplineSet
EndChar

StartChar: one
Encoding: 49 49 11
Width: 551
GlyphClass: 2
Flags: W
LayerCount: 2
Fore
SplineSet
394 0 m 1,0,-1
 315 0 l 1,1,-1
 315 79 l 1,2,-1
 315 157 l 1,3,-1
 315 236 l 1,4,-1
 315 315 l 1,5,-1
 315 394 l 1,6,-1
 315 472 l 1,7,-1
 315 551 l 1,8,-1
 315 630 l 1,9,-1
 315 708 l 1,10,-1
 236 708 l 1,11,-1
 236 630 l 1,12,-1
 157 630 l 1,13,-1
 157 551 l 1,14,-1
 79 551 l 1,15,-1
 0 551 l 1,16,-1
 0 630 l 1,17,-1
 79 630 l 1,18,-1
 79 708 l 1,19,-1
 157 708 l 1,20,-1
 157 787 l 1,21,-1
 236 787 l 1,22,-1
 236 866 l 1,23,-1
 315 866 l 1,24,-1
 394 866 l 1,25,-1
 472 866 l 1,26,-1
 472 787 l 1,27,-1
 472 708 l 1,28,-1
 472 630 l 1,29,-1
 472 551 l 1,30,-1
 472 472 l 1,31,-1
 472 394 l 1,32,-1
 472 315 l 1,33,-1
 472 236 l 1,34,-1
 472 157 l 1,35,-1
 472 79 l 1,36,-1
 472 0 l 1,37,-1
 394 0 l 1,0,-1
EndSplineSet
EndChar

StartChar: two
Encoding: 50 50 12
Width: 551
GlyphClass: 2
Flags: W
LayerCount: 2
Fore
SplineSet
394 0 m 1,0,-1
 315 0 l 1,1,-1
 236 0 l 1,2,-1
 157 0 l 1,3,-1
 79 0 l 1,4,-1
 0 0 l 1,5,-1
 0 79 l 1,6,-1
 0 157 l 1,7,-1
 0 236 l 1,8,-1
 79 236 l 1,9,-1
 79 315 l 1,10,-1
 157 315 l 1,11,-1
 157 394 l 1,12,-1
 236 394 l 1,13,-1
 236 472 l 1,14,-1
 315 472 l 1,15,-1
 315 551 l 1,16,-1
 315 630 l 1,17,-1
 315 708 l 1,18,-1
 236 708 l 1,19,-1
 157 708 l 1,20,-1
 157 630 l 1,21,-1
 79 630 l 1,22,-1
 0 630 l 1,23,-1
 0 708 l 1,24,-1
 0 787 l 1,25,-1
 79 787 l 1,26,-1
 79 866 l 1,27,-1
 157 866 l 1,28,-1
 236 866 l 1,29,-1
 315 866 l 1,30,-1
 394 866 l 1,31,-1
 394 787 l 1,32,-1
 472 787 l 1,33,-1
 472 708 l 1,34,-1
 472 630 l 1,35,-1
 472 551 l 1,36,-1
 472 472 l 1,37,-1
 394 472 l 1,38,-1
 394 394 l 1,39,-1
 394 315 l 1,40,-1
 315 315 l 1,41,-1
 315 236 l 1,42,-1
 236 236 l 1,43,-1
 236 157 l 1,44,-1
 315 157 l 1,45,-1
 394 157 l 1,46,-1
 472 157 l 1,47,-1
 472 79 l 1,48,-1
 472 0 l 1,49,-1
 394 0 l 1,0,-1
EndSplineSet
EndChar

StartChar: three
Encoding: 51 51 13
Width: 551
GlyphClass: 2
Flags: W
LayerCount: 2
Fore
SplineSet
315 0 m 1,0,-1
 236 0 l 1,1,-1
 157 0 l 1,2,-1
 79 0 l 1,3,-1
 79 79 l 1,4,-1
 0 79 l 1,5,-1
 0 157 l 1,6,-1
 0 236 l 1,7,-1
 79 236 l 1,8,-1
 157 236 l 1,9,-1
 157 157 l 1,10,-1
 236 157 l 1,11,-1
 315 157 l 1,12,-1
 315 236 l 1,13,-1
 315 315 l 1,14,-1
 315 394 l 1,15,-1
 236 394 l 1,16,-1
 157 394 l 1,17,-1
 157 472 l 1,18,-1
 157 551 l 1,19,-1
 236 551 l 1,20,-1
 315 551 l 1,21,-1
 315 630 l 1,22,-1
 315 708 l 1,23,-1
 236 708 l 1,24,-1
 157 708 l 1,25,-1
 157 630 l 1,26,-1
 79 630 l 1,27,-1
 0 630 l 1,28,-1
 0 708 l 1,29,-1
 0 787 l 1,30,-1
 79 787 l 1,31,-1
 79 866 l 1,32,-1
 157 866 l 1,33,-1
 236 866 l 1,34,-1
 315 866 l 1,35,-1
 394 866 l 1,36,-1
 394 787 l 1,37,-1
 472 787 l 1,38,-1
 472 708 l 1,39,-1
 472 630 l 1,40,-1
 472 551 l 1,41,-1
 394 551 l 1,42,-1
 394 472 l 1,43,-1
 394 394 l 1,44,-1
 472 394 l 1,45,-1
 472 315 l 1,46,-1
 472 236 l 1,47,-1
 472 157 l 1,48,-1
 472 79 l 1,49,-1
 394 79 l 1,50,-1
 394 0 l 1,51,-1
 315 0 l 1,0,-1
EndSplineSet
EndChar

StartChar: four
Encoding: 52 52 14
Width: 551
GlyphClass: 2
Flags: W
LayerCount: 2
Fore
SplineSet
394 0 m 1,0,-1
 315 0 l 1,1,-1
 315 79 l 1,2,-1
 315 157 l 1,3,-1
 315 236 l 1,4,-1
 236 236 l 1,5,-1
 157 236 l 1,6,-1
 79 236 l 1,7,-1
 0 236 l 1,8,-1
 0 315 l 1,9,-1
 0 394 l 1,10,-1
 0 472 l 1,11,-1
 79 472 l 1,12,-1
 79 551 l 1,13,-1
 157 551 l 1,14,-1
 157 630 l 1,15,-1
 236 630 l 1,16,-1
 236 708 l 1,17,-1
 315 708 l 1,18,-1
 315 787 l 1,19,-1
 394 787 l 1,20,-1
 394 866 l 1,21,-1
 472 866 l 1,22,-1
 472 787 l 1,23,-1
 472 708 l 1,24,-1
 472 630 l 1,25,-1
 472 551 l 1,26,-1
 472 472 l 1,27,-1
 472 394 l 1,28,-1
 472 315 l 1,29,-1
 472 236 l 1,30,-1
 472 157 l 1,31,-1
 472 79 l 1,32,-1
 472 0 l 1,33,-1
 394 0 l 1,0,-1
236 394 m 1,34,-1
 315 394 l 1,35,-1
 315 472 l 1,36,-1
 315 551 l 1,37,-1
 236 551 l 1,38,-1
 236 472 l 1,39,-1
 157 472 l 1,40,-1
 157 394 l 1,41,-1
 236 394 l 1,34,-1
EndSplineSet
EndChar

StartChar: five
Encoding: 53 53 15
Width: 551
GlyphClass: 2
Flags: W
LayerCount: 2
Fore
SplineSet
315 0 m 1,0,-1
 236 0 l 1,1,-1
 157 0 l 1,2,-1
 79 0 l 1,3,-1
 0 0 l 1,4,-1
 0 79 l 1,5,-1
 0 157 l 1,6,-1
 79 157 l 1,7,-1
 157 157 l 1,8,-1
 236 157 l 1,9,-1
 315 157 l 1,10,-1
 315 236 l 1,11,-1
 315 315 l 1,12,-1
 315 394 l 1,13,-1
 236 394 l 1,14,-1
 157 394 l 1,15,-1
 79 394 l 1,16,-1
 0 394 l 1,17,-1
 0 472 l 1,18,-1
 0 551 l 1,19,-1
 0 630 l 1,20,-1
 0 708 l 1,21,-1
 0 787 l 1,22,-1
 0 866 l 1,23,-1
 79 866 l 1,24,-1
 157 866 l 1,25,-1
 236 866 l 1,26,-1
 315 866 l 1,27,-1
 394 866 l 1,28,-1
 472 866 l 1,29,-1
 472 787 l 1,30,-1
 472 708 l 1,31,-1
 394 708 l 1,32,-1
 315 708 l 1,33,-1
 236 708 l 1,34,-1
 157 708 l 1,35,-1
 157 630 l 1,36,-1
 157 551 l 1,37,-1
 236 551 l 1,38,-1
 315 551 l 1,39,-1
 394 551 l 1,40,-1
 394 472 l 1,41,-1
 472 472 l 1,42,-1
 472 394 l 1,43,-1
 472 315 l 1,44,-1
 472 236 l 1,45,-1
 472 157 l 1,46,-1
 472 79 l 1,47,-1
 394 79 l 1,48,-1
 394 0 l 1,49,-1
 315 0 l 1,0,-1
EndSplineSet
EndChar

StartChar: six
Encoding: 54 54 16
Width: 551
GlyphClass: 2
Flags: W
LayerCount: 2
Fore
SplineSet
315 0 m 1,0,-1
 236 0 l 1,1,-1
 157 0 l 1,2,-1
 79 0 l 1,3,-1
 79 79 l 1,4,-1
 0 79 l 1,5,-1
 0 157 l 1,6,-1
 0 236 l 1,7,-1
 0 315 l 1,8,-1
 0 394 l 1,9,-1
 0 472 l 1,10,-1
 0 551 l 1,11,-1
 0 630 l 1,12,-1
 0 708 l 1,13,-1
 0 787 l 1,14,-1
 79 787 l 1,15,-1
 79 866 l 1,16,-1
 157 866 l 1,17,-1
 236 866 l 1,18,-1
 315 866 l 1,19,-1
 394 866 l 1,20,-1
 394 787 l 1,21,-1
 472 787 l 1,22,-1
 472 708 l 1,23,-1
 472 630 l 1,24,-1
 394 630 l 1,25,-1
 315 630 l 1,26,-1
 315 708 l 1,27,-1
 236 708 l 1,28,-1
 157 708 l 1,29,-1
 157 630 l 1,30,-1
 157 551 l 1,31,-1
 236 551 l 1,32,-1
 315 551 l 1,33,-1
 394 551 l 1,34,-1
 394 472 l 1,35,-1
 472 472 l 1,36,-1
 472 394 l 1,37,-1
 472 315 l 1,38,-1
 472 236 l 1,39,-1
 472 157 l 1,40,-1
 472 79 l 1,41,-1
 394 79 l 1,42,-1
 394 0 l 1,43,-1
 315 0 l 1,0,-1
236 157 m 1,44,-1
 315 157 l 1,45,-1
 315 236 l 1,46,-1
 315 315 l 1,47,-1
 315 394 l 1,48,-1
 236 394 l 1,49,-1
 157 394 l 1,50,-1
 157 315 l 1,51,-1
 157 236 l 1,52,-1
 157 157 l 1,53,-1
 236 157 l 1,44,-1
EndSplineSet
EndChar

StartChar: seven
Encoding: 55 55 17
Width: 551
GlyphClass: 2
Flags: W
LayerCount: 2
Fore
SplineSet
79 0 m 1,0,-1
 0 0 l 1,1,-1
 0 79 l 1,2,-1
 0 157 l 1,3,-1
 79 157 l 1,4,-1
 79 236 l 1,5,-1
 79 315 l 1,6,-1
 157 315 l 1,7,-1
 157 394 l 1,8,-1
 157 472 l 1,9,-1
 236 472 l 1,10,-1
 236 551 l 1,11,-1
 236 630 l 1,12,-1
 315 630 l 1,13,-1
 315 708 l 1,14,-1
 236 708 l 1,15,-1
 157 708 l 1,16,-1
 79 708 l 1,17,-1
 0 708 l 1,18,-1
 0 787 l 1,19,-1
 0 866 l 1,20,-1
 79 866 l 1,21,-1
 157 866 l 1,22,-1
 236 866 l 1,23,-1
 315 866 l 1,24,-1
 394 866 l 1,25,-1
 472 866 l 1,26,-1
 472 787 l 1,27,-1
 472 708 l 1,28,-1
 472 630 l 1,29,-1
 394 630 l 1,30,-1
 394 551 l 1,31,-1
 394 472 l 1,32,-1
 315 472 l 1,33,-1
 315 394 l 1,34,-1
 315 315 l 1,35,-1
 236 315 l 1,36,-1
 236 236 l 1,37,-1
 236 157 l 1,38,-1
 157 157 l 1,39,-1
 157 79 l 1,40,-1
 157 0 l 1,41,-1
 79 0 l 1,0,-1
EndSplineSet
EndChar

StartChar: eight
Encoding: 56 56 18
Width: 551
GlyphClass: 2
Flags: W
LayerCount: 2
Fore
SplineSet
315 0 m 1,0,-1
 236 0 l 1,1,-1
 157 0 l 1,2,-1
 79 0 l 1,3,-1
 79 79 l 1,4,-1
 0 79 l 1,5,-1
 0 157 l 1,6,-1
 0 236 l 1,7,-1
 0 315 l 1,8,-1
 0 394 l 1,9,-1
 79 394 l 1,10,-1
 79 472 l 1,11,-1
 79 551 l 1,12,-1
 0 551 l 1,13,-1
 0 630 l 1,14,-1
 0 708 l 1,15,-1
 0 787 l 1,16,-1
 79 787 l 1,17,-1
 79 866 l 1,18,-1
 157 866 l 1,19,-1
 236 866 l 1,20,-1
 315 866 l 1,21,-1
 394 866 l 1,22,-1
 394 787 l 1,23,-1
 472 787 l 1,24,-1
 472 708 l 1,25,-1
 472 630 l 1,26,-1
 472 551 l 1,27,-1
 394 551 l 1,28,-1
 394 472 l 1,29,-1
 394 394 l 1,30,-1
 472 394 l 1,31,-1
 472 315 l 1,32,-1
 472 236 l 1,33,-1
 472 157 l 1,34,-1
 472 79 l 1,35,-1
 394 79 l 1,36,-1
 394 0 l 1,37,-1
 315 0 l 1,0,-1
236 157 m 1,38,-1
 315 157 l 1,39,-1
 315 236 l 1,40,-1
 315 315 l 1,41,-1
 315 394 l 1,42,-1
 236 394 l 1,43,-1
 157 394 l 1,44,-1
 157 315 l 1,45,-1
 157 236 l 1,46,-1
 157 157 l 1,47,-1
 236 157 l 1,38,-1
236 551 m 1,48,-1
 315 551 l 1,49,-1
 315 630 l 1,50,-1
 315 708 l 1,51,-1
 236 708 l 1,52,-1
 157 708 l 1,53,-1
 157 630 l 1,54,-1
 157 551 l 1,55,-1
 236 551 l 1,48,-1
EndSplineSet
EndChar

StartChar: nine
Encoding: 57 57 19
Width: 551
GlyphClass: 2
Flags: W
LayerCount: 2
Fore
SplineSet
315 0 m 1,0,-1
 236 0 l 1,1,-1
 157 0 l 1,2,-1
 79 0 l 1,3,-1
 79 79 l 1,4,-1
 0 79 l 1,5,-1
 0 157 l 1,6,-1
 0 236 l 1,7,-1
 79 236 l 1,8,-1
 157 236 l 1,9,-1
 157 157 l 1,10,-1
 236 157 l 1,11,-1
 315 157 l 1,12,-1
 315 236 l 1,13,-1
 315 315 l 1,14,-1
 236 315 l 1,15,-1
 157 315 l 1,16,-1
 79 315 l 1,17,-1
 79 394 l 1,18,-1
 0 394 l 1,19,-1
 0 472 l 1,20,-1
 0 551 l 1,21,-1
 0 630 l 1,22,-1
 0 708 l 1,23,-1
 0 787 l 1,24,-1
 79 787 l 1,25,-1
 79 866 l 1,26,-1
 157 866 l 1,27,-1
 236 866 l 1,28,-1
 315 866 l 1,29,-1
 394 866 l 1,30,-1
 394 787 l 1,31,-1
 472 787 l 1,32,-1
 472 708 l 1,33,-1
 472 630 l 1,34,-1
 472 551 l 1,35,-1
 472 472 l 1,36,-1
 472 394 l 1,37,-1
 472 315 l 1,38,-1
 472 236 l 1,39,-1
 472 157 l 1,40,-1
 472 79 l 1,41,-1
 394 79 l 1,42,-1
 394 0 l 1,43,-1
 315 0 l 1,0,-1
236 472 m 1,44,-1
 315 472 l 1,45,-1
 315 551 l 1,46,-1
 315 630 l 1,47,-1
 315 708 l 1,48,-1
 236 708 l 1,49,-1
 157 708 l 1,50,-1
 157 630 l 1,51,-1
 157 551 l 1,52,-1
 157 472 l 1,53,-1
 236 472 l 1,44,-1
EndSplineSet
EndChar

StartChar: colon
Encoding: 58 58 20
Width: 236
GlyphClass: 2
Flags: W
LayerCount: 2
Fore
SplineSet
79 157 m 1,0,-1
 0 157 l 1,1,-1
 0 236 l 1,2,-1
 0 315 l 1,3,-1
 79 315 l 1,4,-1
 157 315 l 1,5,-1
 157 236 l 1,6,-1
 157 157 l 1,7,-1
 79 157 l 1,0,-1
79 551 m 1,8,-1
 0 551 l 1,9,-1
 0 630 l 1,10,-1
 0 708 l 1,11,-1
 79 708 l 1,12,-1
 157 708 l 1,13,-1
 157 630 l 1,14,-1
 157 551 l 1,15,-1
 79 551 l 1,8,-1
EndSplineSet
EndChar

StartChar: A
Encoding: 65 65 21
Width: 787
GlyphClass: 2
Flags: W
LayerCount: 2
Fore
SplineSet
630 0 m 1,0,-1
 551 0 l 1,1,-1
 551 79 l 1,2,-1
 551 157 l 1,3,-1
 472 157 l 1,4,-1
 394 157 l 1,5,-1
 315 157 l 1,6,-1
 236 157 l 1,7,-1
 157 157 l 1,8,-1
 157 79 l 1,9,-1
 157 0 l 1,10,-1
 79 0 l 1,11,-1
 0 0 l 1,12,-1
 0 79 l 1,13,-1
 0 157 l 1,14,-1
 79 157 l 1,15,-1
 79 236 l 1,16,-1
 79 315 l 1,17,-1
 79 394 l 1,18,-1
 157 394 l 1,19,-1
 157 472 l 1,20,-1
 157 551 l 1,21,-1
 157 630 l 1,22,-1
 236 630 l 1,23,-1
 236 708 l 1,24,-1
 236 787 l 1,25,-1
 236 866 l 1,26,-1
 315 866 l 1,27,-1
 394 866 l 1,28,-1
 472 866 l 1,29,-1
 472 787 l 1,30,-1
 472 708 l 1,31,-1
 472 630 l 1,32,-1
 551 630 l 1,33,-1
 551 551 l 1,34,-1
 551 472 l 1,35,-1
 551 394 l 1,36,-1
 630 394 l 1,37,-1
 630 315 l 1,38,-1
 630 236 l 1,39,-1
 630 157 l 1,40,-1
 708 157 l 1,41,-1
 708 79 l 1,42,-1
 708 0 l 1,43,-1
 630 0 l 1,0,-1
394 315 m 1,44,-1
 472 315 l 1,45,-1
 472 394 l 1,46,-1
 394 394 l 1,47,-1
 394 472 l 1,48,-1
 394 551 l 1,49,-1
 394 630 l 1,50,-1
 315 630 l 1,51,-1
 315 551 l 1,52,-1
 315 472 l 1,53,-1
 315 394 l 1,54,-1
 236 394 l 1,55,-1
 236 315 l 1,56,-1
 315 315 l 1,57,-1
 394 315 l 1,44,-1
EndSplineSet
EndChar

StartChar: B
Encoding: 66 66 22
Width: 629
GlyphClass: 2
Flags: W
LayerCount: 2
Fore
SplineSet
394 0 m 1,0,-1
 315 0 l 1,1,-1
 236 0 l 1,2,-1
 157 0 l 1,3,-1
 79 0 l 1,4,-1
 0 0 l 1,5,-1
 0 79 l 1,6,-1
 0 157 l 1,7,-1
 0 236 l 1,8,-1
 0 315 l 1,9,-1
 0 394 l 1,10,-1
 0 472 l 1,11,-1
 0 551 l 1,12,-1
 0 630 l 1,13,-1
 0 708 l 1,14,-1
 0 787 l 1,15,-1
 0 866 l 1,16,-1
 79 866 l 1,17,-1
 157 866 l 1,18,-1
 236 866 l 1,19,-1
 315 866 l 1,20,-1
 394 866 l 1,21,-1
 472 866 l 1,22,-1
 472 787 l 1,23,-1
 551 787 l 1,24,-1
 551 708 l 1,25,-1
 551 630 l 1,26,-1
 551 551 l 1,27,-1
 472 551 l 1,28,-1
 472 472 l 1,29,-1
 472 394 l 1,30,-1
 551 394 l 1,31,-1
 551 315 l 1,32,-1
 551 236 l 1,33,-1
 551 157 l 1,34,-1
 551 79 l 1,35,-1
 472 79 l 1,36,-1
 472 0 l 1,37,-1
 394 0 l 1,0,-1
315 157 m 1,38,-1
 394 157 l 1,39,-1
 394 236 l 1,40,-1
 394 315 l 1,41,-1
 394 394 l 1,42,-1
 315 394 l 1,43,-1
 236 394 l 1,44,-1
 157 394 l 1,45,-1
 157 315 l 1,46,-1
 157 236 l 1,47,-1
 157 157 l 1,48,-1
 236 157 l 1,49,-1
 315 157 l 1,38,-1
315 551 m 1,50,-1
 394 551 l 1,51,-1
 394 630 l 1,52,-1
 394 708 l 1,53,-1
 315 708 l 1,54,-1
 236 708 l 1,55,-1
 157 708 l 1,56,-1
 157 630 l 1,57,-1
 157 551 l 1,58,-1
 236 551 l 1,59,-1
 315 551 l 1,50,-1
EndSplineSet
EndChar

StartChar: C
Encoding: 67 67 23
Width: 708
GlyphClass: 2
Flags: W
LayerCount: 2
Fore
SplineSet
472 551 m 1,0,-1
 472 630 l 1,1,-1
 394 630 l 1,2,-1
 394 708 l 1,3,-1
 315 708 l 1,4,-1
 236 708 l 1,5,-1
 236 630 l 1,6,-1
 157 630 l 1,7,-1
 157 551 l 1,8,-1
 157 472 l 1,9,-1
 157 394 l 1,10,-1
 157 315 l 1,11,-1
 157 236 l 1,12,-1
 236 236 l 1,13,-1
 236 157 l 1,14,-1
 315 157 l 1,15,-1
 394 157 l 1,16,-1
 394 236 l 1,17,-1
 472 236 l 1,18,-1
 472 315 l 1,19,-1
 551 315 l 1,20,-1
 551 236 l 1,21,-1
 630 236 l 1,22,-1
 630 157 l 1,23,-1
 551 157 l 1,24,-1
 551 79 l 1,25,-1
 472 79 l 1,26,-1
 472 0 l 1,27,-1
 394 0 l 1,28,-1
 315 0 l 1,29,-1
 236 0 l 1,30,-1
 157 0 l 1,31,-1
 157 79 l 1,32,-1
 79 79 l 1,33,-1
 79 157 l 1,34,-1
 79 236 l 1,35,-1
 0 236 l 1,36,-1
 0 315 l 1,37,-1
 0 394 l 1,38,-1
 0 472 l 1,39,-1
 0 551 l 1,40,-1
 0 630 l 1,41,-1
 79 630 l 1,42,-1
 79 708 l 1,43,-1
 79 787 l 1,44,-1
 157 787 l 1,45,-1
 157 866 l 1,46,-1
 236 866 l 1,47,-1
 315 866 l 1,48,-1
 394 866 l 1,49,-1
 472 866 l 1,50,-1
 472 787 l 1,51,-1
 551 787 l 1,52,-1
 551 708 l 1,53,-1
 630 708 l 1,54,-1
 630 630 l 1,55,-1
 551 630 l 1,56,-1
 551 551 l 1,57,-1
 472 551 l 1,0,-1
EndSplineSet
EndChar

StartChar: D
Encoding: 68 68 24
Width: 629
GlyphClass: 2
Flags: W
LayerCount: 2
Fore
SplineSet
315 0 m 1,0,-1
 236 0 l 1,1,-1
 157 0 l 1,2,-1
 79 0 l 1,3,-1
 0 0 l 1,4,-1
 0 79 l 1,5,-1
 0 157 l 1,6,-1
 0 236 l 1,7,-1
 0 315 l 1,8,-1
 0 394 l 1,9,-1
 0 472 l 1,10,-1
 0 551 l 1,11,-1
 0 630 l 1,12,-1
 0 708 l 1,13,-1
 0 787 l 1,14,-1
 0 866 l 1,15,-1
 79 866 l 1,16,-1
 157 866 l 1,17,-1
 236 866 l 1,18,-1
 315 866 l 1,19,-1
 394 866 l 1,20,-1
 394 787 l 1,21,-1
 472 787 l 1,22,-1
 472 708 l 1,23,-1
 551 708 l 1,24,-1
 551 630 l 1,25,-1
 551 551 l 1,26,-1
 551 472 l 1,27,-1
 551 394 l 1,28,-1
 551 315 l 1,29,-1
 551 236 l 1,30,-1
 551 157 l 1,31,-1
 472 157 l 1,32,-1
 472 79 l 1,33,-1
 394 79 l 1,34,-1
 394 0 l 1,35,-1
 315 0 l 1,0,-1
236 157 m 1,36,-1
 315 157 l 1,37,-1
 315 236 l 1,38,-1
 394 236 l 1,39,-1
 394 315 l 1,40,-1
 394 394 l 1,41,-1
 394 472 l 1,42,-1
 394 551 l 1,43,-1
 394 630 l 1,44,-1
 315 630 l 1,45,-1
 315 708 l 1,46,-1
 236 708 l 1,47,-1
 157 708 l 1,48,-1
 157 630 l 1,49,-1
 157 551 l 1,50,-1
 157 472 l 1,51,-1
 157 394 l 1,52,-1
 157 315 l 1,53,-1
 157 236 l 1,54,-1
 157 157 l 1,55,-1
 236 157 l 1,36,-1
EndSplineSet
EndChar

StartChar: E
Encoding: 69 69 25
Width: 551
GlyphClass: 2
Flags: W
LayerCount: 2
Fore
SplineSet
394 0 m 1,0,-1
 315 0 l 1,1,-1
 236 0 l 1,2,-1
 157 0 l 1,3,-1
 79 0 l 1,4,-1
 0 0 l 1,5,-1
 0 79 l 1,6,-1
 0 157 l 1,7,-1
 0 236 l 1,8,-1
 0 315 l 1,9,-1
 0 394 l 1,10,-1
 0 472 l 1,11,-1
 0 551 l 1,12,-1
 0 630 l 1,13,-1
 0 708 l 1,14,-1
 0 787 l 1,15,-1
 0 866 l 1,16,-1
 79 866 l 1,17,-1
 157 866 l 1,18,-1
 236 866 l 1,19,-1
 315 866 l 1,20,-1
 394 866 l 1,21,-1
 472 866 l 1,22,-1
 472 787 l 1,23,-1
 472 708 l 1,24,-1
 394 708 l 1,25,-1
 315 708 l 1,26,-1
 236 708 l 1,27,-1
 157 708 l 1,28,-1
 157 630 l 1,29,-1
 157 551 l 1,30,-1
 236 551 l 1,31,-1
 315 551 l 1,32,-1
 394 551 l 1,33,-1
 394 472 l 1,34,-1
 394 394 l 1,35,-1
 315 394 l 1,36,-1
 236 394 l 1,37,-1
 157 394 l 1,38,-1
 157 315 l 1,39,-1
 157 236 l 1,40,-1
 157 157 l 1,41,-1
 236 157 l 1,42,-1
 315 157 l 1,43,-1
 394 157 l 1,44,-1
 472 157 l 1,45,-1
 472 79 l 1,46,-1
 472 0 l 1,47,-1
 394 0 l 1,0,-1
EndSplineSet
EndChar

StartChar: F
Encoding: 70 70 26
Width: 551
GlyphClass: 2
Flags: W
LayerCount: 2
Fore
SplineSet
79 0 m 1,0,-1
 0 0 l 1,1,-1
 0 79 l 1,2,-1
 0 157 l 1,3,-1
 0 236 l 1,4,-1
 0 315 l 1,5,-1
 0 394 l 1,6,-1
 0 472 l 1,7,-1
 0 551 l 1,8,-1
 0 630 l 1,9,-1
 0 708 l 1,10,-1
 0 787 l 1,11,-1
 0 866 l 1,12,-1
 79 866 l 1,13,-1
 157 866 l 1,14,-1
 236 866 l 1,15,-1
 315 866 l 1,16,-1
 394 866 l 1,17,-1
 472 866 l 1,18,-1
 472 787 l 1,19,-1
 472 708 l 1,20,-1
 394 708 l 1,21,-1
 315 708 l 1,22,-1
 236 708 l 1,23,-1
 157 708 l 1,24,-1
 157 630 l 1,25,-1
 157 551 l 1,26,-1
 236 551 l 1,27,-1
 315 551 l 1,28,-1
 394 551 l 1,29,-1
 394 472 l 1,30,-1
 394 394 l 1,31,-1
 315 394 l 1,32,-1
 236 394 l 1,33,-1
 157 394 l 1,34,-1
 157 315 l 1,35,-1
 157 236 l 1,36,-1
 157 157 l 1,37,-1
 157 79 l 1,38,-1
 157 0 l 1,39,-1
 79 0 l 1,0,-1
EndSplineSet
EndChar

StartChar: G
Encoding: 71 71 27
Width: 708
GlyphClass: 2
Flags: W
LayerCount: 2
Fore
SplineSet
472 551 m 1,0,-1
 472 630 l 1,1,-1
 394 630 l 1,2,-1
 394 708 l 1,3,-1
 315 708 l 1,4,-1
 236 708 l 1,5,-1
 236 630 l 1,6,-1
 157 630 l 1,7,-1
 157 551 l 1,8,-1
 157 472 l 1,9,-1
 157 394 l 1,10,-1
 157 315 l 1,11,-1
 157 236 l 1,12,-1
 236 236 l 1,13,-1
 236 157 l 1,14,-1
 315 157 l 1,15,-1
 394 157 l 1,16,-1
 394 236 l 1,17,-1
 472 236 l 1,18,-1
 472 315 l 1,19,-1
 394 315 l 1,20,-1
 315 315 l 1,21,-1
 315 394 l 1,22,-1
 315 472 l 1,23,-1
 394 472 l 1,24,-1
 472 472 l 1,25,-1
 551 472 l 1,26,-1
 630 472 l 1,27,-1
 630 394 l 1,28,-1
 630 315 l 1,29,-1
 630 236 l 1,30,-1
 630 157 l 1,31,-1
 551 157 l 1,32,-1
 551 79 l 1,33,-1
 472 79 l 1,34,-1
 472 0 l 1,35,-1
 394 0 l 1,36,-1
 315 0 l 1,37,-1
 236 0 l 1,38,-1
 157 0 l 1,39,-1
 157 79 l 1,40,-1
 79 79 l 1,41,-1
 79 157 l 1,42,-1
 79 236 l 1,43,-1
 0 236 l 1,44,-1
 0 315 l 1,45,-1
 0 394 l 1,46,-1
 0 472 l 1,47,-1
 0 551 l 1,48,-1
 0 630 l 1,49,-1
 79 630 l 1,50,-1
 79 708 l 1,51,-1
 79 787 l 1,52,-1
 157 787 l 1,53,-1
 157 866 l 1,54,-1
 236 866 l 1,55,-1
 315 866 l 1,56,-1
 394 866 l 1,57,-1
 472 866 l 1,58,-1
 472 787 l 1,59,-1
 551 787 l 1,60,-1
 551 708 l 1,61,-1
 630 708 l 1,62,-1
 630 630 l 1,63,-1
 551 630 l 1,64,-1
 551 551 l 1,65,-1
 472 551 l 1,0,-1
EndSplineSet
EndChar

StartChar: H
Encoding: 72 72 28
Width: 629
GlyphClass: 2
Flags: W
LayerCount: 2
Fore
SplineSet
472 0 m 1,0,-1
 394 0 l 1,1,-1
 394 79 l 1,2,-1
 394 157 l 1,3,-1
 394 236 l 1,4,-1
 394 315 l 1,5,-1
 394 394 l 1,6,-1
 315 394 l 1,7,-1
 236 394 l 1,8,-1
 157 394 l 1,9,-1
 157 315 l 1,10,-1
 157 236 l 1,11,-1
 157 157 l 1,12,-1
 157 79 l 1,13,-1
 157 0 l 1,14,-1
 79 0 l 1,15,-1
 0 0 l 1,16,-1
 0 79 l 1,17,-1
 0 157 l 1,18,-1
 0 236 l 1,19,-1
 0 315 l 1,20,-1
 0 394 l 1,21,-1
 0 472 l 1,22,-1
 0 551 l 1,23,-1
 0 630 l 1,24,-1
 0 708 l 1,25,-1
 0 787 l 1,26,-1
 0 866 l 1,27,-1
 79 866 l 1,28,-1
 157 866 l 1,29,-1
 157 787 l 1,30,-1
 157 708 l 1,31,-1
 157 630 l 1,32,-1
 157 551 l 1,33,-1
 236 551 l 1,34,-1
 315 551 l 1,35,-1
 394 551 l 1,36,-1
 394 630 l 1,37,-1
 394 708 l 1,38,-1
 394 787 l 1,39,-1
 394 866 l 1,40,-1
 472 866 l 1,41,-1
 551 866 l 1,42,-1
 551 787 l 1,43,-1
 551 708 l 1,44,-1
 551 630 l 1,45,-1
 551 551 l 1,46,-1
 551 472 l 1,47,-1
 551 394 l 1,48,-1
 551 315 l 1,49,-1
 551 236 l 1,50,-1
 551 157 l 1,51,-1
 551 79 l 1,52,-1
 551 0 l 1,53,-1
 472 0 l 1,0,-1
EndSplineSet
EndChar

StartChar: I
Encoding: 73 73 29
Width: 236
GlyphClass: 2
Flags: W
LayerCount: 2
Fore
SplineSet
79 0 m 1,0,-1
 0 0 l 1,1,-1
 0 79 l 1,2,-1
 0 157 l 1,3,-1
 0 236 l 1,4,-1
 0 315 l 1,5,-1
 0 394 l 1,6,-1
 0 472 l 1,7,-1
 0 551 l 1,8,-1
 0 630 l 1,9,-1
 0 708 l 1,10,-1
 0 787 l 1,11,-1
 0 866 l 1,12,-1
 79 866 l 1,13,-1
 157 866 l 1,14,-1
 157 787 l 1,15,-1
 157 708 l 1,16,-1
 157 630 l 1,17,-1
 157 551 l 1,18,-1
 157 472 l 1,19,-1
 157 394 l 1,20,-1
 157 315 l 1,21,-1
 157 236 l 1,22,-1
 157 157 l 1,23,-1
 157 79 l 1,24,-1
 157 0 l 1,25,-1
 79 0 l 1,0,-1
EndSplineSet
EndChar

StartChar: J
Encoding: 74 74 30
Width: 629
GlyphClass: 2
Flags: W
LayerCount: 2
Fore
SplineSet
394 0 m 1,0,-1
 315 0 l 1,1,-1
 236 0 l 1,2,-1
 157 0 l 1,3,-1
 79 0 l 1,4,-1
 79 79 l 1,5,-1
 0 79 l 1,6,-1
 0 157 l 1,7,-1
 0 236 l 1,8,-1
 0 315 l 1,9,-1
 79 315 l 1,10,-1
 157 315 l 1,11,-1
 157 236 l 1,12,-1
 157 157 l 1,13,-1
 236 157 l 1,14,-1
 236 79 l 1,15,-1
 315 79 l 1,16,-1
 315 157 l 1,17,-1
 394 157 l 1,18,-1
 394 236 l 1,19,-1
 394 315 l 1,20,-1
 394 394 l 1,21,-1
 394 472 l 1,22,-1
 394 551 l 1,23,-1
 394 630 l 1,24,-1
 394 708 l 1,25,-1
 394 787 l 1,26,-1
 394 866 l 1,27,-1
 472 866 l 1,28,-1
 551 866 l 1,29,-1
 551 787 l 1,30,-1
 551 708 l 1,31,-1
 551 630 l 1,32,-1
 551 551 l 1,33,-1
 551 472 l 1,34,-1
 551 394 l 1,35,-1
 551 315 l 1,36,-1
 551 236 l 1,37,-1
 551 157 l 1,38,-1
 551 79 l 1,39,-1
 472 79 l 1,40,-1
 472 0 l 1,41,-1
 394 0 l 1,0,-1
EndSplineSet
EndChar

StartChar: K
Encoding: 75 75 31
Width: 551
GlyphClass: 2
Flags: W
LayerCount: 2
Fore
SplineSet
394 0 m 1,0,-1
 315 0 l 1,1,-1
 315 79 l 1,2,-1
 315 157 l 1,3,-1
 236 157 l 1,4,-1
 236 236 l 1,5,-1
 236 315 l 1,6,-1
 157 315 l 1,7,-1
 157 236 l 1,8,-1
 157 157 l 1,9,-1
 157 79 l 1,10,-1
 157 0 l 1,11,-1
 79 0 l 1,12,-1
 0 0 l 1,13,-1
 0 79 l 1,14,-1
 0 157 l 1,15,-1
 0 236 l 1,16,-1
 0 315 l 1,17,-1
 0 394 l 1,18,-1
 0 472 l 1,19,-1
 0 551 l 1,20,-1
 0 630 l 1,21,-1
 0 708 l 1,22,-1
 0 787 l 1,23,-1
 0 866 l 1,24,-1
 79 866 l 1,25,-1
 157 866 l 1,26,-1
 157 787 l 1,27,-1
 157 708 l 1,28,-1
 157 630 l 1,29,-1
 157 551 l 1,30,-1
 157 472 l 1,31,-1
 236 472 l 1,32,-1
 236 551 l 1,33,-1
 236 630 l 1,34,-1
 315 630 l 1,35,-1
 315 708 l 1,36,-1
 315 787 l 1,37,-1
 315 866 l 1,38,-1
 394 866 l 1,39,-1
 472 866 l 1,40,-1
 472 787 l 1,41,-1
 472 708 l 1,42,-1
 472 630 l 1,43,-1
 394 630 l 1,44,-1
 394 551 l 1,45,-1
 394 472 l 1,46,-1
 315 472 l 1,47,-1
 315 394 l 1,48,-1
 394 394 l 1,49,-1
 394 315 l 1,50,-1
 394 236 l 1,51,-1
 394 157 l 1,52,-1
 472 157 l 1,53,-1
 472 79 l 1,54,-1
 472 0 l 1,55,-1
 394 0 l 1,0,-1
EndSplineSet
EndChar

StartChar: L
Encoding: 76 76 32
Width: 708
GlyphClass: 2
Flags: W
LayerCount: 2
Fore
SplineSet
551 0 m 1,0,-1
 472 0 l 1,1,-1
 394 0 l 1,2,-1
 315 0 l 1,3,-1
 236 0 l 1,4,-1
 157 0 l 1,5,-1
 79 0 l 1,6,-1
 0 0 l 1,7,-1
 0 79 l 1,8,-1
 0 157 l 1,9,-1
 0 236 l 1,10,-1
 0 315 l 1,11,-1
 0 394 l 1,12,-1
 0 472 l 1,13,-1
 0 551 l 1,14,-1
 0 630 l 1,15,-1
 0 708 l 1,16,-1
 0 787 l 1,17,-1
 0 866 l 1,18,-1
 79 866 l 1,19,-1
 157 866 l 1,20,-1
 157 787 l 1,21,-1
 157 708 l 1,22,-1
 157 630 l 1,23,-1
 157 551 l 1,24,-1
 157 472 l 1,25,-1
 157 394 l 1,26,-1
 157 315 l 1,27,-1
 157 236 l 1,28,-1
 157 157 l 1,29,-1
 236 157 l 1,30,-1
 315 157 l 1,31,-1
 394 157 l 1,32,-1
 472 157 l 1,33,-1
 551 157 l 1,34,-1
 630 157 l 1,35,-1
 630 79 l 1,36,-1
 630 0 l 1,37,-1
 551 0 l 1,0,-1
EndSplineSet
EndChar

StartChar: M
Encoding: 77 77 33
Width: 865
GlyphClass: 2
Flags: W
LayerCount: 2
Fore
SplineSet
708 0 m 1,0,-1
 630 0 l 1,1,-1
 630 79 l 1,2,-1
 630 157 l 1,3,-1
 630 236 l 1,4,-1
 630 315 l 1,5,-1
 630 394 l 1,6,-1
 630 472 l 1,7,-1
 630 551 l 1,8,-1
 551 551 l 1,9,-1
 551 472 l 1,10,-1
 472 472 l 1,11,-1
 472 394 l 1,12,-1
 394 394 l 1,13,-1
 315 394 l 1,14,-1
 315 472 l 1,15,-1
 236 472 l 1,16,-1
 236 551 l 1,17,-1
 157 551 l 1,18,-1
 157 472 l 1,19,-1
 157 394 l 1,20,-1
 157 315 l 1,21,-1
 157 236 l 1,22,-1
 157 157 l 1,23,-1
 157 79 l 1,24,-1
 157 0 l 1,25,-1
 79 0 l 1,26,-1
 0 0 l 1,27,-1
 0 79 l 1,28,-1
 0 157 l 1,29,-1
 0 236 l 1,30,-1
 0 315 l 1,31,-1
 0 394 l 1,32,-1
 0 472 l 1,33,-1
 0 551 l 1,34,-1
 0 630 l 1,35,-1
 0 708 l 1,36,-1
 0 787 l 1,37,-1
 0 866 l 1,38,-1
 79 866 l 1,39,-1
 157 866 l 1,40,-1
 157 787 l 1,41,-1
 236 787 l 1,42,-1
 236 708 l 1,43,-1
 315 708 l 1,44,-1
 315 630 l 1,45,-1
 394 630 l 1,46,-1
 472 630 l 1,47,-1
 472 708 l 1,48,-1
 551 708 l 1,49,-1
 551 787 l 1,50,-1
 630 787 l 1,51,-1
 630 866 l 1,52,-1
 708 866 l 1,53,-1
 787 866 l 1,54,-1
 787 787 l 1,55,-1
 787 708 l 1,56,-1
 787 630 l 1,57,-1
 787 551 l 1,58,-1
 787 472 l 1,59,-1
 787 394 l 1,60,-1
 787 315 l 1,61,-1
 787 236 l 1,62,-1
 787 157 l 1,63,-1
 787 79 l 1,64,-1
 787 0 l 1,65,-1
 708 0 l 1,0,-1
EndSplineSet
EndChar

StartChar: N
Encoding: 78 78 34
Width: 629
GlyphClass: 2
Flags: W
LayerCount: 2
Fore
SplineSet
472 0 m 1,0,-1
 394 0 l 1,1,-1
 394 79 l 1,2,-1
 394 157 l 1,3,-1
 394 236 l 1,4,-1
 394 315 l 1,5,-1
 394 394 l 1,6,-1
 394 472 l 1,7,-1
 315 472 l 1,8,-1
 315 551 l 1,9,-1
 236 551 l 1,10,-1
 236 630 l 1,11,-1
 157 630 l 1,12,-1
 157 551 l 1,13,-1
 157 472 l 1,14,-1
 157 394 l 1,15,-1
 157 315 l 1,16,-1
 157 236 l 1,17,-1
 157 157 l 1,18,-1
 157 79 l 1,19,-1
 157 0 l 1,20,-1
 79 0 l 1,21,-1
 0 0 l 1,22,-1
 0 79 l 1,23,-1
 0 157 l 1,24,-1
 0 236 l 1,25,-1
 0 315 l 1,26,-1
 0 394 l 1,27,-1
 0 472 l 1,28,-1
 0 551 l 1,29,-1
 0 630 l 1,30,-1
 0 708 l 1,31,-1
 0 787 l 1,32,-1
 0 866 l 1,33,-1
 79 866 l 1,34,-1
 157 866 l 1,35,-1
 236 866 l 1,36,-1
 236 787 l 1,37,-1
 315 787 l 1,38,-1
 315 708 l 1,39,-1
 394 708 l 1,40,-1
 394 787 l 1,41,-1
 394 866 l 1,42,-1
 472 866 l 1,43,-1
 551 866 l 1,44,-1
 551 787 l 1,45,-1
 551 708 l 1,46,-1
 551 630 l 1,47,-1
 551 551 l 1,48,-1
 551 472 l 1,49,-1
 551 394 l 1,50,-1
 551 315 l 1,51,-1
 551 236 l 1,52,-1
 551 157 l 1,53,-1
 551 79 l 1,54,-1
 551 0 l 1,55,-1
 472 0 l 1,0,-1
EndSplineSet
EndChar

StartChar: O
Encoding: 79 79 35
Width: 629
GlyphClass: 2
Flags: W
LayerCount: 2
Fore
SplineSet
394 0 m 1,0,-1
 315 0 l 1,1,-1
 236 0 l 1,2,-1
 157 0 l 1,3,-1
 79 0 l 1,4,-1
 79 79 l 1,5,-1
 0 79 l 1,6,-1
 0 157 l 1,7,-1
 0 236 l 1,8,-1
 0 315 l 1,9,-1
 0 394 l 1,10,-1
 0 472 l 1,11,-1
 0 551 l 1,12,-1
 0 630 l 1,13,-1
 0 708 l 1,14,-1
 0 787 l 1,15,-1
 79 787 l 1,16,-1
 79 866 l 1,17,-1
 157 866 l 1,18,-1
 236 866 l 1,19,-1
 315 866 l 1,20,-1
 394 866 l 1,21,-1
 472 866 l 1,22,-1
 472 787 l 1,23,-1
 551 787 l 1,24,-1
 551 708 l 1,25,-1
 551 630 l 1,26,-1
 551 551 l 1,27,-1
 551 472 l 1,28,-1
 551 394 l 1,29,-1
 551 315 l 1,30,-1
 551 236 l 1,31,-1
 551 157 l 1,32,-1
 551 79 l 1,33,-1
 472 79 l 1,34,-1
 472 0 l 1,35,-1
 394 0 l 1,0,-1
315 157 m 1,36,-1
 394 157 l 1,37,-1
 394 236 l 1,38,-1
 394 315 l 1,39,-1
 394 394 l 1,40,-1
 394 472 l 1,41,-1
 394 551 l 1,42,-1
 394 630 l 1,43,-1
 394 708 l 1,44,-1
 315 708 l 1,45,-1
 236 708 l 1,46,-1
 157 708 l 1,47,-1
 157 630 l 1,48,-1
 157 551 l 1,49,-1
 157 472 l 1,50,-1
 157 394 l 1,51,-1
 157 315 l 1,52,-1
 157 236 l 1,53,-1
 157 157 l 1,54,-1
 236 157 l 1,55,-1
 315 157 l 1,36,-1
EndSplineSet
EndChar

StartChar: P
Encoding: 80 80 36
Width: 629
GlyphClass: 2
Flags: W
LayerCount: 2
Fore
SplineSet
79 0 m 1,0,-1
 0 0 l 1,1,-1
 0 79 l 1,2,-1
 0 157 l 1,3,-1
 0 236 l 1,4,-1
 0 315 l 1,5,-1
 0 394 l 1,6,-1
 0 472 l 1,7,-1
 0 551 l 1,8,-1
 0 630 l 1,9,-1
 0 708 l 1,10,-1
 0 787 l 1,11,-1
 0 866 l 1,12,-1
 79 866 l 1,13,-1
 157 866 l 1,14,-1
 236 866 l 1,15,-1
 315 866 l 1,16,-1
 394 866 l 1,17,-1
 472 866 l 1,18,-1
 472 787 l 1,19,-1
 551 787 l 1,20,-1
 551 708 l 1,21,-1
 551 630 l 1,22,-1
 551 551 l 1,23,-1
 551 472 l 1,24,-1
 551 394 l 1,25,-1
 472 394 l 1,26,-1
 472 315 l 1,27,-1
 394 315 l 1,28,-1
 315 315 l 1,29,-1
 236 315 l 1,30,-1
 157 315 l 1,31,-1
 157 236 l 1,32,-1
 157 157 l 1,33,-1
 157 79 l 1,34,-1
 157 0 l 1,35,-1
 79 0 l 1,0,-1
315 472 m 1,36,-1
 394 472 l 1,37,-1
 394 551 l 1,38,-1
 394 630 l 1,39,-1
 394 708 l 1,40,-1
 315 708 l 1,41,-1
 236 708 l 1,42,-1
 157 708 l 1,43,-1
 157 630 l 1,44,-1
 157 551 l 1,45,-1
 157 472 l 1,46,-1
 236 472 l 1,47,-1
 315 472 l 1,36,-1
EndSplineSet
EndChar

StartChar: Q
Encoding: 81 81 37
Width: 787
GlyphClass: 2
Flags: W
LayerCount: 2
Fore
SplineSet
630 0 m 1,0,-1
 551 0 l 1,1,-1
 551 79 l 1,2,-1
 472 79 l 1,3,-1
 472 0 l 1,4,-1
 394 0 l 1,5,-1
 315 0 l 1,6,-1
 236 0 l 1,7,-1
 157 0 l 1,8,-1
 79 0 l 1,9,-1
 79 79 l 1,10,-1
 0 79 l 1,11,-1
 0 157 l 1,12,-1
 0 236 l 1,13,-1
 0 315 l 1,14,-1
 0 394 l 1,15,-1
 0 472 l 1,16,-1
 0 551 l 1,17,-1
 0 630 l 1,18,-1
 0 708 l 1,19,-1
 0 787 l 1,20,-1
 79 787 l 1,21,-1
 79 866 l 1,22,-1
 157 866 l 1,23,-1
 236 866 l 1,24,-1
 315 866 l 1,25,-1
 394 866 l 1,26,-1
 472 866 l 1,27,-1
 472 787 l 1,28,-1
 551 787 l 1,29,-1
 551 708 l 1,30,-1
 551 630 l 1,31,-1
 551 551 l 1,32,-1
 551 472 l 1,33,-1
 551 394 l 1,34,-1
 551 315 l 1,35,-1
 551 236 l 1,36,-1
 630 236 l 1,37,-1
 630 157 l 1,38,-1
 630 79 l 1,39,-1
 708 79 l 1,40,-1
 708 0 l 1,41,-1
 630 0 l 1,0,-1
315 157 m 1,42,-1
 394 157 l 1,43,-1
 394 236 l 1,44,-1
 315 236 l 1,45,-1
 315 315 l 1,46,-1
 236 315 l 1,47,-1
 236 394 l 1,48,-1
 315 394 l 1,49,-1
 394 394 l 1,50,-1
 394 472 l 1,51,-1
 394 551 l 1,52,-1
 394 630 l 1,53,-1
 394 708 l 1,54,-1
 315 708 l 1,55,-1
 236 708 l 1,56,-1
 157 708 l 1,57,-1
 157 630 l 1,58,-1
 157 551 l 1,59,-1
 157 472 l 1,60,-1
 157 394 l 1,61,-1
 157 315 l 1,62,-1
 157 236 l 1,63,-1
 157 157 l 1,64,-1
 236 157 l 1,65,-1
 315 157 l 1,42,-1
EndSplineSet
EndChar

StartChar: R
Encoding: 82 82 38
Width: 708
GlyphClass: 2
Flags: W
LayerCount: 2
Fore
SplineSet
551 0 m 1,0,-1
 472 0 l 1,1,-1
 472 79 l 1,2,-1
 394 79 l 1,3,-1
 394 157 l 1,4,-1
 394 236 l 1,5,-1
 394 315 l 1,6,-1
 315 315 l 1,7,-1
 236 315 l 1,8,-1
 157 315 l 1,9,-1
 157 236 l 1,10,-1
 157 157 l 1,11,-1
 157 79 l 1,12,-1
 157 0 l 1,13,-1
 79 0 l 1,14,-1
 0 0 l 1,15,-1
 0 79 l 1,16,-1
 0 157 l 1,17,-1
 0 236 l 1,18,-1
 0 315 l 1,19,-1
 0 394 l 1,20,-1
 0 472 l 1,21,-1
 0 551 l 1,22,-1
 0 630 l 1,23,-1
 0 708 l 1,24,-1
 0 787 l 1,25,-1
 0 866 l 1,26,-1
 79 866 l 1,27,-1
 157 866 l 1,28,-1
 236 866 l 1,29,-1
 315 866 l 1,30,-1
 394 866 l 1,31,-1
 472 866 l 1,32,-1
 472 787 l 1,33,-1
 551 787 l 1,34,-1
 551 708 l 1,35,-1
 551 630 l 1,36,-1
 551 551 l 1,37,-1
 551 472 l 1,38,-1
 551 394 l 1,39,-1
 472 394 l 1,40,-1
 472 315 l 1,41,-1
 551 315 l 1,42,-1
 551 236 l 1,43,-1
 551 157 l 1,44,-1
 551 79 l 1,45,-1
 630 79 l 1,46,-1
 630 0 l 1,47,-1
 551 0 l 1,0,-1
315 472 m 1,48,-1
 394 472 l 1,49,-1
 394 551 l 1,50,-1
 394 630 l 1,51,-1
 394 708 l 1,52,-1
 315 708 l 1,53,-1
 236 708 l 1,54,-1
 157 708 l 1,55,-1
 157 630 l 1,56,-1
 157 551 l 1,57,-1
 157 472 l 1,58,-1
 236 472 l 1,59,-1
 315 472 l 1,48,-1
EndSplineSet
EndChar

StartChar: S
Encoding: 83 83 39
Width: 629
GlyphClass: 2
Flags: W
LayerCount: 2
Fore
SplineSet
394 0 m 1,0,-1
 315 0 l 1,1,-1
 236 0 l 1,2,-1
 157 0 l 1,3,-1
 79 0 l 1,4,-1
 79 79 l 1,5,-1
 0 79 l 1,6,-1
 0 157 l 1,7,-1
 0 236 l 1,8,-1
 0 315 l 1,9,-1
 79 315 l 1,10,-1
 157 315 l 1,11,-1
 157 236 l 1,12,-1
 157 157 l 1,13,-1
 236 157 l 1,14,-1
 315 157 l 1,15,-1
 394 157 l 1,16,-1
 394 236 l 1,17,-1
 394 315 l 1,18,-1
 315 315 l 1,19,-1
 315 394 l 1,20,-1
 236 394 l 1,21,-1
 157 394 l 1,22,-1
 79 394 l 1,23,-1
 79 472 l 1,24,-1
 0 472 l 1,25,-1
 0 551 l 1,26,-1
 0 630 l 1,27,-1
 0 708 l 1,28,-1
 0 787 l 1,29,-1
 79 787 l 1,30,-1
 79 866 l 1,31,-1
 157 866 l 1,32,-1
 236 866 l 1,33,-1
 315 866 l 1,34,-1
 394 866 l 1,35,-1
 472 866 l 1,36,-1
 472 787 l 1,37,-1
 551 787 l 1,38,-1
 551 708 l 1,39,-1
 551 630 l 1,40,-1
 551 551 l 1,41,-1
 472 551 l 1,42,-1
 394 551 l 1,43,-1
 394 630 l 1,44,-1
 394 708 l 1,45,-1
 315 708 l 1,46,-1
 236 708 l 1,47,-1
 157 708 l 1,48,-1
 157 630 l 1,49,-1
 157 551 l 1,50,-1
 236 551 l 1,51,-1
 315 551 l 1,52,-1
 315 472 l 1,53,-1
 394 472 l 1,54,-1
 472 472 l 1,55,-1
 472 394 l 1,56,-1
 551 394 l 1,57,-1
 551 315 l 1,58,-1
 551 236 l 1,59,-1
 551 157 l 1,60,-1
 551 79 l 1,61,-1
 472 79 l 1,62,-1
 472 0 l 1,63,-1
 394 0 l 1,0,-1
EndSplineSet
EndChar

StartChar: T
Encoding: 84 84 40
Width: 551
GlyphClass: 2
Flags: W
LayerCount: 2
Fore
SplineSet
236 0 m 1,0,-1
 157 0 l 1,1,-1
 157 79 l 1,2,-1
 157 157 l 1,3,-1
 157 236 l 1,4,-1
 157 315 l 1,5,-1
 157 394 l 1,6,-1
 157 472 l 1,7,-1
 157 551 l 1,8,-1
 157 630 l 1,9,-1
 157 708 l 1,10,-1
 79 708 l 1,11,-1
 0 708 l 1,12,-1
 0 787 l 1,13,-1
 0 866 l 1,14,-1
 79 866 l 1,15,-1
 157 866 l 1,16,-1
 236 866 l 1,17,-1
 315 866 l 1,18,-1
 394 866 l 1,19,-1
 472 866 l 1,20,-1
 472 787 l 1,21,-1
 472 708 l 1,22,-1
 394 708 l 1,23,-1
 315 708 l 1,24,-1
 315 630 l 1,25,-1
 315 551 l 1,26,-1
 315 472 l 1,27,-1
 315 394 l 1,28,-1
 315 315 l 1,29,-1
 315 236 l 1,30,-1
 315 157 l 1,31,-1
 315 79 l 1,32,-1
 315 0 l 1,33,-1
 236 0 l 1,0,-1
EndSplineSet
EndChar

StartChar: U
Encoding: 85 85 41
Width: 629
GlyphClass: 2
Flags: W
LayerCount: 2
Fore
SplineSet
394 0 m 1,0,-1
 315 0 l 1,1,-1
 236 0 l 1,2,-1
 157 0 l 1,3,-1
 157 79 l 1,4,-1
 79 79 l 1,5,-1
 79 157 l 1,6,-1
 0 157 l 1,7,-1
 0 236 l 1,8,-1
 0 315 l 1,9,-1
 0 394 l 1,10,-1
 0 472 l 1,11,-1
 0 551 l 1,12,-1
 0 630 l 1,13,-1
 0 708 l 1,14,-1
 0 787 l 1,15,-1
 0 866 l 1,16,-1
 79 866 l 1,17,-1
 157 866 l 1,18,-1
 157 787 l 1,19,-1
 157 708 l 1,20,-1
 157 630 l 1,21,-1
 157 551 l 1,22,-1
 157 472 l 1,23,-1
 157 394 l 1,24,-1
 157 315 l 1,25,-1
 157 236 l 1,26,-1
 157 157 l 1,27,-1
 236 157 l 1,28,-1
 315 157 l 1,29,-1
 394 157 l 1,30,-1
 394 236 l 1,31,-1
 394 315 l 1,32,-1
 394 394 l 1,33,-1
 394 472 l 1,34,-1
 394 551 l 1,35,-1
 394 630 l 1,36,-1
 394 708 l 1,37,-1
 394 787 l 1,38,-1
 394 866 l 1,39,-1
 472 866 l 1,40,-1
 551 866 l 1,41,-1
 551 787 l 1,42,-1
 551 708 l 1,43,-1
 551 630 l 1,44,-1
 551 551 l 1,45,-1
 551 472 l 1,46,-1
 551 394 l 1,47,-1
 551 315 l 1,48,-1
 551 236 l 1,49,-1
 551 157 l 1,50,-1
 551 79 l 1,51,-1
 472 79 l 1,52,-1
 472 0 l 1,53,-1
 394 0 l 1,0,-1
EndSplineSet
EndChar

StartChar: V
Encoding: 86 86 42
Width: 708
GlyphClass: 2
Flags: W
LayerCount: 2
Fore
SplineSet
315 0 m 1,0,-1
 236 0 l 1,1,-1
 236 79 l 1,2,-1
 236 157 l 1,3,-1
 157 157 l 1,4,-1
 157 236 l 1,5,-1
 79 236 l 1,6,-1
 79 315 l 1,7,-1
 79 394 l 1,8,-1
 0 394 l 1,9,-1
 0 472 l 1,10,-1
 0 551 l 1,11,-1
 0 630 l 1,12,-1
 0 708 l 1,13,-1
 0 787 l 1,14,-1
 0 866 l 1,15,-1
 79 866 l 1,16,-1
 157 866 l 1,17,-1
 157 787 l 1,18,-1
 157 708 l 1,19,-1
 157 630 l 1,20,-1
 157 551 l 1,21,-1
 157 472 l 1,22,-1
 157 394 l 1,23,-1
 236 394 l 1,24,-1
 236 315 l 1,25,-1
 315 315 l 1,26,-1
 394 315 l 1,27,-1
 394 394 l 1,28,-1
 472 394 l 1,29,-1
 472 472 l 1,30,-1
 472 551 l 1,31,-1
 472 630 l 1,32,-1
 472 708 l 1,33,-1
 472 787 l 1,34,-1
 472 866 l 1,35,-1
 551 866 l 1,36,-1
 630 866 l 1,37,-1
 630 787 l 1,38,-1
 630 708 l 1,39,-1
 630 630 l 1,40,-1
 630 551 l 1,41,-1
 630 472 l 1,42,-1
 630 394 l 1,43,-1
 551 394 l 1,44,-1
 551 315 l 1,45,-1
 551 236 l 1,46,-1
 472 236 l 1,47,-1
 472 157 l 1,48,-1
 394 157 l 1,49,-1
 394 79 l 1,50,-1
 394 0 l 1,51,-1
 315 0 l 1,0,-1
EndSplineSet
EndChar

StartChar: W
Encoding: 87 87 43
Width: 708
GlyphClass: 2
Flags: W
LayerCount: 2
Fore
SplineSet
551 0 m 1,0,-1
 472 0 l 1,1,-1
 472 79 l 1,2,-1
 394 79 l 1,3,-1
 394 157 l 1,4,-1
 315 157 l 1,5,-1
 236 157 l 1,6,-1
 236 79 l 1,7,-1
 157 79 l 1,8,-1
 157 0 l 1,9,-1
 79 0 l 1,10,-1
 0 0 l 1,11,-1
 0 79 l 1,12,-1
 0 157 l 1,13,-1
 0 236 l 1,14,-1
 0 315 l 1,15,-1
 0 394 l 1,16,-1
 0 472 l 1,17,-1
 0 551 l 1,18,-1
 0 630 l 1,19,-1
 0 708 l 1,20,-1
 0 787 l 1,21,-1
 0 866 l 1,22,-1
 79 866 l 1,23,-1
 157 866 l 1,24,-1
 157 787 l 1,25,-1
 157 708 l 1,26,-1
 157 630 l 1,27,-1
 157 551 l 1,28,-1
 157 472 l 1,29,-1
 157 394 l 1,30,-1
 157 315 l 1,31,-1
 236 315 l 1,32,-1
 236 394 l 1,33,-1
 315 394 l 1,34,-1
 394 394 l 1,35,-1
 394 315 l 1,36,-1
 472 315 l 1,37,-1
 472 394 l 1,38,-1
 472 472 l 1,39,-1
 472 551 l 1,40,-1
 472 630 l 1,41,-1
 472 708 l 1,42,-1
 472 787 l 1,43,-1
 472 866 l 1,44,-1
 551 866 l 1,45,-1
 630 866 l 1,46,-1
 630 787 l 1,47,-1
 630 708 l 1,48,-1
 630 630 l 1,49,-1
 630 551 l 1,50,-1
 630 472 l 1,51,-1
 630 394 l 1,52,-1
 630 315 l 1,53,-1
 630 236 l 1,54,-1
 630 157 l 1,55,-1
 630 79 l 1,56,-1
 630 0 l 1,57,-1
 551 0 l 1,0,-1
EndSplineSet
EndChar

StartChar: X
Encoding: 88 88 44
Width: 629
GlyphClass: 2
Flags: W
LayerCount: 2
Fore
SplineSet
472 0 m 1,0,-1
 394 0 l 1,1,-1
 394 79 l 1,2,-1
 394 157 l 1,3,-1
 394 236 l 1,4,-1
 315 236 l 1,5,-1
 315 315 l 1,6,-1
 315 394 l 1,7,-1
 236 394 l 1,8,-1
 236 315 l 1,9,-1
 236 236 l 1,10,-1
 157 236 l 1,11,-1
 157 157 l 1,12,-1
 157 79 l 1,13,-1
 157 0 l 1,14,-1
 79 0 l 1,15,-1
 0 0 l 1,16,-1
 0 79 l 1,17,-1
 0 157 l 1,18,-1
 0 236 l 1,19,-1
 79 236 l 1,20,-1
 79 315 l 1,21,-1
 79 394 l 1,22,-1
 157 394 l 1,23,-1
 157 472 l 1,24,-1
 157 551 l 1,25,-1
 79 551 l 1,26,-1
 79 630 l 1,27,-1
 79 708 l 1,28,-1
 0 708 l 1,29,-1
 0 787 l 1,30,-1
 0 866 l 1,31,-1
 79 866 l 1,32,-1
 157 866 l 1,33,-1
 157 787 l 1,34,-1
 157 708 l 1,35,-1
 236 708 l 1,36,-1
 236 630 l 1,37,-1
 236 551 l 1,38,-1
 315 551 l 1,39,-1
 315 630 l 1,40,-1
 315 708 l 1,41,-1
 394 708 l 1,42,-1
 394 787 l 1,43,-1
 394 866 l 1,44,-1
 472 866 l 1,45,-1
 551 866 l 1,46,-1
 551 787 l 1,47,-1
 551 708 l 1,48,-1
 472 708 l 1,49,-1
 472 630 l 1,50,-1
 472 551 l 1,51,-1
 394 551 l 1,52,-1
 394 472 l 1,53,-1
 394 394 l 1,54,-1
 472 394 l 1,55,-1
 472 315 l 1,56,-1
 472 236 l 1,57,-1
 551 236 l 1,58,-1
 551 157 l 1,59,-1
 551 79 l 1,60,-1
 551 0 l 1,61,-1
 472 0 l 1,0,-1
EndSplineSet
EndChar

StartChar: Y
Encoding: 89 89 45
Width: 708
GlyphClass: 2
Flags: W
LayerCount: 2
Fore
SplineSet
315 0 m 1,0,-1
 236 0 l 1,1,-1
 236 79 l 1,2,-1
 236 157 l 1,3,-1
 236 236 l 1,4,-1
 236 315 l 1,5,-1
 236 394 l 1,6,-1
 157 394 l 1,7,-1
 157 472 l 1,8,-1
 157 551 l 1,9,-1
 79 551 l 1,10,-1
 79 630 l 1,11,-1
 79 708 l 1,12,-1
 0 708 l 1,13,-1
 0 787 l 1,14,-1
 0 866 l 1,15,-1
 79 866 l 1,16,-1
 157 866 l 1,17,-1
 157 787 l 1,18,-1
 157 708 l 1,19,-1
 236 708 l 1,20,-1
 236 630 l 1,21,-1
 236 551 l 1,22,-1
 315 551 l 1,23,-1
 394 551 l 1,24,-1
 394 630 l 1,25,-1
 394 708 l 1,26,-1
 472 708 l 1,27,-1
 472 787 l 1,28,-1
 472 866 l 1,29,-1
 551 866 l 1,30,-1
 630 866 l 1,31,-1
 630 787 l 1,32,-1
 630 708 l 1,33,-1
 551 708 l 1,34,-1
 551 630 l 1,35,-1
 551 551 l 1,36,-1
 472 551 l 1,37,-1
 472 472 l 1,38,-1
 472 394 l 1,39,-1
 394 394 l 1,40,-1
 394 315 l 1,41,-1
 394 236 l 1,42,-1
 394 157 l 1,43,-1
 394 79 l 1,44,-1
 394 0 l 1,45,-1
 315 0 l 1,0,-1
EndSplineSet
EndChar

StartChar: Z
Encoding: 90 90 46
Width: 629
GlyphClass: 2
Flags: W
LayerCount: 2
Fore
SplineSet
472 0 m 1,0,-1
 394 0 l 1,1,-1
 315 0 l 1,2,-1
 236 0 l 1,3,-1
 157 0 l 1,4,-1
 79 0 l 1,5,-1
 0 0 l 1,6,-1
 0 79 l 1,7,-1
 0 157 l 1,8,-1
 0 236 l 1,9,-1
 0 315 l 1,10,-1
 79 315 l 1,11,-1
 79 394 l 1,12,-1
 157 394 l 1,13,-1
 157 472 l 1,14,-1
 236 472 l 1,15,-1
 236 551 l 1,16,-1
 315 551 l 1,17,-1
 315 630 l 1,18,-1
 394 630 l 1,19,-1
 394 708 l 1,20,-1
 315 708 l 1,21,-1
 236 708 l 1,22,-1
 157 708 l 1,23,-1
 79 708 l 1,24,-1
 0 708 l 1,25,-1
 0 787 l 1,26,-1
 0 866 l 1,27,-1
 79 866 l 1,28,-1
 157 866 l 1,29,-1
 236 866 l 1,30,-1
 315 866 l 1,31,-1
 394 866 l 1,32,-1
 472 866 l 1,33,-1
 551 866 l 1,34,-1
 551 787 l 1,35,-1
 551 708 l 1,36,-1
 551 630 l 1,37,-1
 551 551 l 1,38,-1
 472 551 l 1,39,-1
 472 472 l 1,40,-1
 394 472 l 1,41,-1
 394 394 l 1,42,-1
 315 394 l 1,43,-1
 315 315 l 1,44,-1
 236 315 l 1,45,-1
 236 236 l 1,46,-1
 157 236 l 1,47,-1
 157 157 l 1,48,-1
 236 157 l 1,49,-1
 315 157 l 1,50,-1
 394 157 l 1,51,-1
 472 157 l 1,52,-1
 551 157 l 1,53,-1
 551 79 l 1,54,-1
 551 0 l 1,55,-1
 472 0 l 1,0,-1
EndSplineSet
EndChar

StartChar: a
Encoding: 97 97 47
Width: 551
GlyphClass: 2
Flags: W
LayerCount: 2
Fore
SplineSet
394 0 m 1,0,-1
 315 0 l 1,1,-1
 315 79 l 1,2,-1
 236 79 l 1,3,-1
 236 0 l 1,4,-1
 157 0 l 1,5,-1
 79 0 l 1,6,-1
 79 79 l 1,7,-1
 0 79 l 1,8,-1
 0 157 l 1,9,-1
 0 236 l 1,10,-1
 0 315 l 1,11,-1
 79 315 l 1,12,-1
 157 315 l 1,13,-1
 157 394 l 1,14,-1
 79 394 l 1,15,-1
 0 394 l 1,16,-1
 0 472 l 1,17,-1
 0 551 l 1,18,-1
 79 551 l 1,19,-1
 79 630 l 1,20,-1
 157 630 l 1,21,-1
 236 630 l 1,22,-1
 315 630 l 1,23,-1
 394 630 l 1,24,-1
 394 551 l 1,25,-1
 472 551 l 1,26,-1
 472 472 l 1,27,-1
 472 394 l 1,28,-1
 472 315 l 1,29,-1
 472 236 l 1,30,-1
 472 157 l 1,31,-1
 472 79 l 1,32,-1
 472 0 l 1,33,-1
 394 0 l 1,0,-1
236 157 m 1,34,-1
 315 157 l 1,35,-1
 315 236 l 1,36,-1
 236 236 l 1,37,-1
 157 236 l 1,38,-1
 157 157 l 1,39,-1
 236 157 l 1,34,-1
236 394 m 1,40,-1
 315 394 l 1,41,-1
 315 472 l 1,42,-1
 236 472 l 1,43,-1
 157 472 l 1,44,-1
 157 394 l 1,45,-1
 236 394 l 1,40,-1
EndSplineSet
EndChar

StartChar: b
Encoding: 98 98 48
Width: 551
GlyphClass: 2
Flags: W
LayerCount: 2
Fore
SplineSet
315 0 m 1,0,-1
 236 0 l 1,1,-1
 157 0 l 1,2,-1
 79 0 l 1,3,-1
 0 0 l 1,4,-1
 0 79 l 1,5,-1
 0 157 l 1,6,-1
 0 236 l 1,7,-1
 0 315 l 1,8,-1
 0 394 l 1,9,-1
 0 472 l 1,10,-1
 0 551 l 1,11,-1
 0 630 l 1,12,-1
 0 708 l 1,13,-1
 0 787 l 1,14,-1
 0 866 l 1,15,-1
 79 866 l 1,16,-1
 157 866 l 1,17,-1
 157 787 l 1,18,-1
 157 708 l 1,19,-1
 157 630 l 1,20,-1
 236 630 l 1,21,-1
 315 630 l 1,22,-1
 394 630 l 1,23,-1
 394 551 l 1,24,-1
 472 551 l 1,25,-1
 472 472 l 1,26,-1
 472 394 l 1,27,-1
 472 315 l 1,28,-1
 472 236 l 1,29,-1
 472 157 l 1,30,-1
 394 157 l 1,31,-1
 394 79 l 1,32,-1
 394 0 l 1,33,-1
 315 0 l 1,0,-1
236 157 m 1,34,-1
 315 157 l 1,35,-1
 315 236 l 1,36,-1
 315 315 l 1,37,-1
 315 394 l 1,38,-1
 315 472 l 1,39,-1
 236 472 l 1,40,-1
 157 472 l 1,41,-1
 157 394 l 1,42,-1
 157 315 l 1,43,-1
 157 236 l 1,44,-1
 157 157 l 1,45,-1
 236 157 l 1,34,-1
EndSplineSet
EndChar

StartChar: c
Encoding: 99 99 49
Width: 551
GlyphClass: 2
Flags: W
LayerCount: 2
Fore
SplineSet
315 0 m 1,0,-1
 236 0 l 1,1,-1
 157 0 l 1,2,-1
 157 79 l 1,3,-1
 79 79 l 1,4,-1
 79 157 l 1,5,-1
 0 157 l 1,6,-1
 0 236 l 1,7,-1
 0 315 l 1,8,-1
 0 394 l 1,9,-1
 0 472 l 1,10,-1
 79 472 l 1,11,-1
 79 551 l 1,12,-1
 157 551 l 1,13,-1
 157 630 l 1,14,-1
 236 630 l 1,15,-1
 315 630 l 1,16,-1
 394 630 l 1,17,-1
 394 551 l 1,18,-1
 472 551 l 1,19,-1
 472 472 l 1,20,-1
 472 394 l 1,21,-1
 394 394 l 1,22,-1
 315 394 l 1,23,-1
 315 472 l 1,24,-1
 236 472 l 1,25,-1
 157 472 l 1,26,-1
 157 394 l 1,27,-1
 157 315 l 1,28,-1
 157 236 l 1,29,-1
 157 157 l 1,30,-1
 236 157 l 1,31,-1
 315 157 l 1,32,-1
 315 236 l 1,33,-1
 394 236 l 1,34,-1
 472 236 l 1,35,-1
 472 157 l 1,36,-1
 472 79 l 1,37,-1
 394 79 l 1,38,-1
 394 0 l 1,39,-1
 315 0 l 1,0,-1
EndSplineSet
EndChar

StartChar: d
Encoding: 100 100 50
Width: 551
GlyphClass: 2
Flags: W
LayerCount: 2
Fore
SplineSet
394 0 m 1,0,-1
 315 0 l 1,1,-1
 236 0 l 1,2,-1
 157 0 l 1,3,-1
 79 0 l 1,4,-1
 79 79 l 1,5,-1
 0 79 l 1,6,-1
 0 157 l 1,7,-1
 0 236 l 1,8,-1
 0 315 l 1,9,-1
 0 394 l 1,10,-1
 0 472 l 1,11,-1
 0 551 l 1,12,-1
 79 551 l 1,13,-1
 79 630 l 1,14,-1
 157 630 l 1,15,-1
 236 630 l 1,16,-1
 315 630 l 1,17,-1
 315 708 l 1,18,-1
 315 787 l 1,19,-1
 315 866 l 1,20,-1
 394 866 l 1,21,-1
 472 866 l 1,22,-1
 472 787 l 1,23,-1
 472 708 l 1,24,-1
 472 630 l 1,25,-1
 472 551 l 1,26,-1
 472 472 l 1,27,-1
 472 394 l 1,28,-1
 472 315 l 1,29,-1
 472 236 l 1,30,-1
 472 157 l 1,31,-1
 472 79 l 1,32,-1
 472 0 l 1,33,-1
 394 0 l 1,0,-1
236 157 m 1,34,-1
 315 157 l 1,35,-1
 315 236 l 1,36,-1
 315 315 l 1,37,-1
 315 394 l 1,38,-1
 315 472 l 1,39,-1
 236 472 l 1,40,-1
 157 472 l 1,41,-1
 157 394 l 1,42,-1
 157 315 l 1,43,-1
 157 236 l 1,44,-1
 157 157 l 1,45,-1
 236 157 l 1,34,-1
EndSplineSet
EndChar

StartChar: e
Encoding: 101 101 51
Width: 551
GlyphClass: 2
Flags: W
LayerCount: 2
Fore
SplineSet
315 0 m 1,0,-1
 236 0 l 1,1,-1
 157 0 l 1,2,-1
 79 0 l 1,3,-1
 79 79 l 1,4,-1
 0 79 l 1,5,-1
 0 157 l 1,6,-1
 0 236 l 1,7,-1
 0 315 l 1,8,-1
 0 394 l 1,9,-1
 0 472 l 1,10,-1
 0 551 l 1,11,-1
 79 551 l 1,12,-1
 79 630 l 1,13,-1
 157 630 l 1,14,-1
 236 630 l 1,15,-1
 315 630 l 1,16,-1
 394 630 l 1,17,-1
 394 551 l 1,18,-1
 472 551 l 1,19,-1
 472 472 l 1,20,-1
 472 394 l 1,21,-1
 472 315 l 1,22,-1
 394 315 l 1,23,-1
 315 315 l 1,24,-1
 236 315 l 1,25,-1
 157 315 l 1,26,-1
 157 236 l 1,27,-1
 157 157 l 1,28,-1
 236 157 l 1,29,-1
 315 157 l 1,30,-1
 315 236 l 1,31,-1
 394 236 l 1,32,-1
 472 236 l 1,33,-1
 472 157 l 1,34,-1
 472 79 l 1,35,-1
 394 79 l 1,36,-1
 394 0 l 1,37,-1
 315 0 l 1,0,-1
236 394 m 1,38,-1
 315 394 l 1,39,-1
 315 472 l 1,40,-1
 236 472 l 1,41,-1
 157 472 l 1,42,-1
 157 394 l 1,43,-1
 236 394 l 1,38,-1
EndSplineSet
EndChar

StartChar: f
Encoding: 102 102 52
Width: 393
GlyphClass: 2
Flags: W
LayerCount: 2
Fore
SplineSet
157 0 m 1,0,-1
 79 0 l 1,1,-1
 79 79 l 1,2,-1
 79 157 l 1,3,-1
 79 236 l 1,4,-1
 79 315 l 1,5,-1
 79 394 l 1,6,-1
 79 472 l 1,7,-1
 0 472 l 1,8,-1
 0 551 l 1,9,-1
 0 630 l 1,10,-1
 79 630 l 1,11,-1
 79 708 l 1,12,-1
 79 787 l 1,13,-1
 79 866 l 1,14,-1
 157 866 l 1,15,-1
 236 866 l 1,16,-1
 315 866 l 1,17,-1
 315 787 l 1,18,-1
 315 708 l 1,19,-1
 236 708 l 1,20,-1
 236 630 l 1,21,-1
 315 630 l 1,22,-1
 315 551 l 1,23,-1
 315 472 l 1,24,-1
 236 472 l 1,25,-1
 236 394 l 1,26,-1
 236 315 l 1,27,-1
 236 236 l 1,28,-1
 236 157 l 1,29,-1
 236 79 l 1,30,-1
 236 0 l 1,31,-1
 157 0 l 1,0,-1
EndSplineSet
EndChar

StartChar: g
Encoding: 103 103 53
Width: 551
GlyphClass: 2
Flags: W
LayerCount: 2
Fore
SplineSet
315 -157 m 1,0,-1
 236 -157 l 1,1,-1
 157 -157 l 1,2,-1
 79 -157 l 1,3,-1
 79 -79 l 1,4,-1
 0 -79 l 1,5,-1
 0 0 l 1,6,-1
 79 0 l 1,7,-1
 157 0 l 1,8,-1
 157 -79 l 1,9,-1
 236 -79 l 1,10,-1
 315 -79 l 1,11,-1
 315 0 l 1,12,-1
 315 79 l 1,13,-1
 315 157 l 1,14,-1
 236 157 l 1,15,-1
 236 79 l 1,16,-1
 157 79 l 1,17,-1
 79 79 l 1,18,-1
 79 157 l 1,19,-1
 0 157 l 1,20,-1
 0 236 l 1,21,-1
 0 315 l 1,22,-1
 0 394 l 1,23,-1
 0 472 l 1,24,-1
 0 551 l 1,25,-1
 79 551 l 1,26,-1
 79 630 l 1,27,-1
 157 630 l 1,28,-1
 236 630 l 1,29,-1
 236 551 l 1,30,-1
 315 551 l 1,31,-1
 315 630 l 1,32,-1
 394 630 l 1,33,-1
 472 630 l 1,34,-1
 472 551 l 1,35,-1
 472 472 l 1,36,-1
 472 394 l 1,37,-1
 472 315 l 1,38,-1
 472 236 l 1,39,-1
 472 157 l 1,40,-1
 472 79 l 1,41,-1
 472 0 l 1,42,-1
 472 -79 l 1,43,-1
 394 -79 l 1,44,-1
 394 -157 l 1,45,-1
 315 -157 l 1,0,-1
236 236 m 1,46,-1
 315 236 l 1,47,-1
 315 315 l 1,48,-1
 315 394 l 1,49,-1
 315 472 l 1,50,-1
 236 472 l 1,51,-1
 157 472 l 1,52,-1
 157 394 l 1,53,-1
 157 315 l 1,54,-1
 157 236 l 1,55,-1
 236 236 l 1,46,-1
EndSplineSet
EndChar

StartChar: h
Encoding: 104 104 54
Width: 551
GlyphClass: 2
Flags: W
LayerCount: 2
Fore
SplineSet
394 0 m 1,0,-1
 315 0 l 1,1,-1
 315 79 l 1,2,-1
 315 157 l 1,3,-1
 315 236 l 1,4,-1
 315 315 l 1,5,-1
 315 394 l 1,6,-1
 315 472 l 1,7,-1
 236 472 l 1,8,-1
 157 472 l 1,9,-1
 157 394 l 1,10,-1
 157 315 l 1,11,-1
 157 236 l 1,12,-1
 157 157 l 1,13,-1
 157 79 l 1,14,-1
 157 0 l 1,15,-1
 79 0 l 1,16,-1
 0 0 l 1,17,-1
 0 79 l 1,18,-1
 0 157 l 1,19,-1
 0 236 l 1,20,-1
 0 315 l 1,21,-1
 0 394 l 1,22,-1
 0 472 l 1,23,-1
 0 551 l 1,24,-1
 0 630 l 1,25,-1
 0 708 l 1,26,-1
 0 787 l 1,27,-1
 0 866 l 1,28,-1
 79 866 l 1,29,-1
 157 866 l 1,30,-1
 157 787 l 1,31,-1
 157 708 l 1,32,-1
 157 630 l 1,33,-1
 157 551 l 1,34,-1
 236 551 l 1,35,-1
 236 630 l 1,36,-1
 315 630 l 1,37,-1
 394 630 l 1,38,-1
 394 551 l 1,39,-1
 472 551 l 1,40,-1
 472 472 l 1,41,-1
 472 394 l 1,42,-1
 472 315 l 1,43,-1
 472 236 l 1,44,-1
 472 157 l 1,45,-1
 472 79 l 1,46,-1
 472 0 l 1,47,-1
 394 0 l 1,0,-1
EndSplineSet
EndChar

StartChar: i
Encoding: 105 105 55
Width: 393
GlyphClass: 2
Flags: W
LayerCount: 2
Fore
SplineSet
236 0 m 1,0,-1
 157 0 l 1,1,-1
 79 0 l 1,2,-1
 0 0 l 1,3,-1
 0 79 l 1,4,-1
 0 157 l 1,5,-1
 79 157 l 1,6,-1
 79 236 l 1,7,-1
 79 315 l 1,8,-1
 79 394 l 1,9,-1
 79 472 l 1,10,-1
 79 551 l 1,11,-1
 79 630 l 1,12,-1
 157 630 l 1,13,-1
 236 630 l 1,14,-1
 236 551 l 1,15,-1
 236 472 l 1,16,-1
 236 394 l 1,17,-1
 236 315 l 1,18,-1
 236 236 l 1,19,-1
 236 157 l 1,20,-1
 315 157 l 1,21,-1
 315 79 l 1,22,-1
 315 0 l 1,23,-1
 236 0 l 1,0,-1
157 708 m 1,24,-1
 79 708 l 1,25,-1
 79 787 l 1,26,-1
 79 866 l 1,27,-1
 157 866 l 1,28,-1
 236 866 l 1,29,-1
 236 787 l 1,30,-1
 236 708 l 1,31,-1
 157 708 l 1,24,-1
EndSplineSet
EndChar

StartChar: j
Encoding: 106 106 56
Width: 314
GlyphClass: 2
Flags: W
LayerCount: 2
Fore
SplineSet
157 -157 m 1,0,-1
 79 -157 l 1,1,-1
 0 -157 l 1,2,-1
 0 -79 l 1,3,-1
 0 0 l 1,4,-1
 79 0 l 1,5,-1
 79 79 l 1,6,-1
 79 157 l 1,7,-1
 79 236 l 1,8,-1
 79 315 l 1,9,-1
 79 394 l 1,10,-1
 79 472 l 1,11,-1
 79 551 l 1,12,-1
 79 630 l 1,13,-1
 157 630 l 1,14,-1
 236 630 l 1,15,-1
 236 551 l 1,16,-1
 236 472 l 1,17,-1
 236 394 l 1,18,-1
 236 315 l 1,19,-1
 236 236 l 1,20,-1
 236 157 l 1,21,-1
 236 79 l 1,22,-1
 236 0 l 1,23,-1
 236 -79 l 1,24,-1
 236 -157 l 1,25,-1
 157 -157 l 1,0,-1
157 708 m 1,26,-1
 79 708 l 1,27,-1
 79 787 l 1,28,-1
 79 866 l 1,29,-1
 157 866 l 1,30,-1
 236 866 l 1,31,-1
 236 787 l 1,32,-1
 236 708 l 1,33,-1
 157 708 l 1,26,-1
EndSplineSet
EndChar

StartChar: k
Encoding: 107 107 57
Width: 551
GlyphClass: 2
Flags: W
LayerCount: 2
Fore
SplineSet
394 0 m 1,0,-1
 315 0 l 1,1,-1
 315 79 l 1,2,-1
 315 157 l 1,3,-1
 236 157 l 1,4,-1
 236 236 l 1,5,-1
 236 315 l 1,6,-1
 157 315 l 1,7,-1
 157 236 l 1,8,-1
 157 157 l 1,9,-1
 157 79 l 1,10,-1
 157 0 l 1,11,-1
 79 0 l 1,12,-1
 0 0 l 1,13,-1
 0 79 l 1,14,-1
 0 157 l 1,15,-1
 0 236 l 1,16,-1
 0 315 l 1,17,-1
 0 394 l 1,18,-1
 0 472 l 1,19,-1
 0 551 l 1,20,-1
 0 630 l 1,21,-1
 0 708 l 1,22,-1
 0 787 l 1,23,-1
 0 866 l 1,24,-1
 79 866 l 1,25,-1
 157 866 l 1,26,-1
 157 787 l 1,27,-1
 157 708 l 1,28,-1
 157 630 l 1,29,-1
 157 551 l 1,30,-1
 157 472 l 1,31,-1
 236 472 l 1,32,-1
 236 551 l 1,33,-1
 315 551 l 1,34,-1
 315 630 l 1,35,-1
 394 630 l 1,36,-1
 472 630 l 1,37,-1
 472 551 l 1,38,-1
 394 551 l 1,39,-1
 394 472 l 1,40,-1
 315 472 l 1,41,-1
 315 394 l 1,42,-1
 394 394 l 1,43,-1
 394 315 l 1,44,-1
 394 236 l 1,45,-1
 394 157 l 1,46,-1
 472 157 l 1,47,-1
 472 79 l 1,48,-1
 472 0 l 1,49,-1
 394 0 l 1,0,-1
EndSplineSet
EndChar

StartChar: l
Encoding: 108 108 58
Width: 236
GlyphClass: 2
Flags: W
LayerCount: 2
Fore
SplineSet
79 0 m 1,0,-1
 0 0 l 1,1,-1
 0 79 l 1,2,-1
 0 157 l 1,3,-1
 0 236 l 1,4,-1
 0 315 l 1,5,-1
 0 394 l 1,6,-1
 0 472 l 1,7,-1
 0 551 l 1,8,-1
 0 630 l 1,9,-1
 0 708 l 1,10,-1
 0 787 l 1,11,-1
 0 866 l 1,12,-1
 79 866 l 1,13,-1
 157 866 l 1,14,-1
 157 787 l 1,15,-1
 157 708 l 1,16,-1
 157 630 l 1,17,-1
 157 551 l 1,18,-1
 157 472 l 1,19,-1
 157 394 l 1,20,-1
 157 315 l 1,21,-1
 157 236 l 1,22,-1
 157 157 l 1,23,-1
 157 79 l 1,24,-1
 157 0 l 1,25,-1
 79 0 l 1,0,-1
EndSplineSet
EndChar

StartChar: m
Encoding: 109 109 59
Width: 865
GlyphClass: 2
Flags: W
LayerCount: 2
Fore
SplineSet
708 0 m 1,0,-1
 630 0 l 1,1,-1
 630 79 l 1,2,-1
 630 157 l 1,3,-1
 630 236 l 1,4,-1
 630 315 l 1,5,-1
 630 394 l 1,6,-1
 630 472 l 1,7,-1
 551 472 l 1,8,-1
 472 472 l 1,9,-1
 472 394 l 1,10,-1
 472 315 l 1,11,-1
 472 236 l 1,12,-1
 472 157 l 1,13,-1
 472 79 l 1,14,-1
 472 0 l 1,15,-1
 394 0 l 1,16,-1
 315 0 l 1,17,-1
 315 79 l 1,18,-1
 315 157 l 1,19,-1
 315 236 l 1,20,-1
 315 315 l 1,21,-1
 315 394 l 1,22,-1
 315 472 l 1,23,-1
 236 472 l 1,24,-1
 157 472 l 1,25,-1
 157 394 l 1,26,-1
 157 315 l 1,27,-1
 157 236 l 1,28,-1
 157 157 l 1,29,-1
 157 79 l 1,30,-1
 157 0 l 1,31,-1
 79 0 l 1,32,-1
 0 0 l 1,33,-1
 0 79 l 1,34,-1
 0 157 l 1,35,-1
 0 236 l 1,36,-1
 0 315 l 1,37,-1
 0 394 l 1,38,-1
 0 472 l 1,39,-1
 0 551 l 1,40,-1
 0 630 l 1,41,-1
 79 630 l 1,42,-1
 157 630 l 1,43,-1
 236 630 l 1,44,-1
 315 630 l 1,45,-1
 394 630 l 1,46,-1
 394 551 l 1,47,-1
 472 551 l 1,48,-1
 472 630 l 1,49,-1
 551 630 l 1,50,-1
 630 630 l 1,51,-1
 708 630 l 1,52,-1
 708 551 l 1,53,-1
 787 551 l 1,54,-1
 787 472 l 1,55,-1
 787 394 l 1,56,-1
 787 315 l 1,57,-1
 787 236 l 1,58,-1
 787 157 l 1,59,-1
 787 79 l 1,60,-1
 787 0 l 1,61,-1
 708 0 l 1,0,-1
EndSplineSet
EndChar

StartChar: n
Encoding: 110 110 60
Width: 551
GlyphClass: 2
Flags: W
LayerCount: 2
Fore
SplineSet
394 0 m 1,0,-1
 315 0 l 1,1,-1
 315 79 l 1,2,-1
 315 157 l 1,3,-1
 315 236 l 1,4,-1
 315 315 l 1,5,-1
 315 394 l 1,6,-1
 315 472 l 1,7,-1
 315 551 l 1,8,-1
 236 551 l 1,9,-1
 157 551 l 1,10,-1
 157 472 l 1,11,-1
 157 394 l 1,12,-1
 157 315 l 1,13,-1
 157 236 l 1,14,-1
 157 157 l 1,15,-1
 157 79 l 1,16,-1
 157 0 l 1,17,-1
 79 0 l 1,18,-1
 0 0 l 1,19,-1
 0 79 l 1,20,-1
 0 157 l 1,21,-1
 0 236 l 1,22,-1
 0 315 l 1,23,-1
 0 394 l 1,24,-1
 0 472 l 1,25,-1
 0 551 l 1,26,-1
 0 630 l 1,27,-1
 79 630 l 1,28,-1
 157 630 l 1,29,-1
 236 630 l 1,30,-1
 315 630 l 1,31,-1
 394 630 l 1,32,-1
 394 551 l 1,33,-1
 472 551 l 1,34,-1
 472 472 l 1,35,-1
 472 394 l 1,36,-1
 472 315 l 1,37,-1
 472 236 l 1,38,-1
 472 157 l 1,39,-1
 472 79 l 1,40,-1
 472 0 l 1,41,-1
 394 0 l 1,0,-1
EndSplineSet
EndChar

StartChar: o
Encoding: 111 111 61
Width: 629
GlyphClass: 2
Flags: W
LayerCount: 2
Fore
SplineSet
394 0 m 1,0,-1
 315 0 l 1,1,-1
 236 0 l 1,2,-1
 157 0 l 1,3,-1
 79 0 l 1,4,-1
 79 79 l 1,5,-1
 0 79 l 1,6,-1
 0 157 l 1,7,-1
 0 236 l 1,8,-1
 0 315 l 1,9,-1
 0 394 l 1,10,-1
 0 472 l 1,11,-1
 0 551 l 1,12,-1
 79 551 l 1,13,-1
 79 630 l 1,14,-1
 157 630 l 1,15,-1
 236 630 l 1,16,-1
 315 630 l 1,17,-1
 394 630 l 1,18,-1
 472 630 l 1,19,-1
 472 551 l 1,20,-1
 551 551 l 1,21,-1
 551 472 l 1,22,-1
 551 394 l 1,23,-1
 551 315 l 1,24,-1
 551 236 l 1,25,-1
 551 157 l 1,26,-1
 551 79 l 1,27,-1
 472 79 l 1,28,-1
 472 0 l 1,29,-1
 394 0 l 1,0,-1
315 157 m 1,30,-1
 394 157 l 1,31,-1
 394 236 l 1,32,-1
 394 315 l 1,33,-1
 394 394 l 1,34,-1
 394 472 l 1,35,-1
 315 472 l 1,36,-1
 236 472 l 1,37,-1
 157 472 l 1,38,-1
 157 394 l 1,39,-1
 157 315 l 1,40,-1
 157 236 l 1,41,-1
 157 157 l 1,42,-1
 236 157 l 1,43,-1
 315 157 l 1,30,-1
EndSplineSet
EndChar

StartChar: p
Encoding: 112 112 62
Width: 551
GlyphClass: 2
Flags: W
LayerCount: 2
Fore
SplineSet
79 -157 m 1,0,-1
 0 -157 l 1,1,-1
 0 -79 l 1,2,-1
 0 0 l 1,3,-1
 0 79 l 1,4,-1
 0 157 l 1,5,-1
 0 236 l 1,6,-1
 0 315 l 1,7,-1
 0 394 l 1,8,-1
 0 472 l 1,9,-1
 0 551 l 1,10,-1
 0 630 l 1,11,-1
 79 630 l 1,12,-1
 157 630 l 1,13,-1
 157 551 l 1,14,-1
 236 551 l 1,15,-1
 236 630 l 1,16,-1
 315 630 l 1,17,-1
 394 630 l 1,18,-1
 394 551 l 1,19,-1
 472 551 l 1,20,-1
 472 472 l 1,21,-1
 472 394 l 1,22,-1
 472 315 l 1,23,-1
 472 236 l 1,24,-1
 472 157 l 1,25,-1
 394 157 l 1,26,-1
 394 79 l 1,27,-1
 394 0 l 1,28,-1
 315 0 l 1,29,-1
 236 0 l 1,30,-1
 236 79 l 1,31,-1
 157 79 l 1,32,-1
 157 0 l 1,33,-1
 157 -79 l 1,34,-1
 157 -157 l 1,35,-1
 79 -157 l 1,0,-1
236 157 m 1,36,-1
 315 157 l 1,37,-1
 315 236 l 1,38,-1
 315 315 l 1,39,-1
 315 394 l 1,40,-1
 315 472 l 1,41,-1
 236 472 l 1,42,-1
 157 472 l 1,43,-1
 157 394 l 1,44,-1
 157 315 l 1,45,-1
 157 236 l 1,46,-1
 157 157 l 1,47,-1
 236 157 l 1,36,-1
EndSplineSet
EndChar

StartChar: q
Encoding: 113 113 63
Width: 551
GlyphClass: 2
Flags: W
LayerCount: 2
Fore
SplineSet
394 -157 m 1,0,-1
 315 -157 l 1,1,-1
 315 -79 l 1,2,-1
 315 0 l 1,3,-1
 315 79 l 1,4,-1
 236 79 l 1,5,-1
 236 0 l 1,6,-1
 157 0 l 1,7,-1
 79 0 l 1,8,-1
 79 79 l 1,9,-1
 79 157 l 1,10,-1
 0 157 l 1,11,-1
 0 236 l 1,12,-1
 0 315 l 1,13,-1
 0 394 l 1,14,-1
 0 472 l 1,15,-1
 0 551 l 1,16,-1
 79 551 l 1,17,-1
 79 630 l 1,18,-1
 157 630 l 1,19,-1
 236 630 l 1,20,-1
 236 551 l 1,21,-1
 315 551 l 1,22,-1
 315 630 l 1,23,-1
 394 630 l 1,24,-1
 472 630 l 1,25,-1
 472 551 l 1,26,-1
 472 472 l 1,27,-1
 472 394 l 1,28,-1
 472 315 l 1,29,-1
 472 236 l 1,30,-1
 472 157 l 1,31,-1
 472 79 l 1,32,-1
 472 0 l 1,33,-1
 472 -79 l 1,34,-1
 472 -157 l 1,35,-1
 394 -157 l 1,0,-1
236 157 m 1,36,-1
 315 157 l 1,37,-1
 315 236 l 1,38,-1
 315 315 l 1,39,-1
 315 394 l 1,40,-1
 315 472 l 1,41,-1
 236 472 l 1,42,-1
 157 472 l 1,43,-1
 157 394 l 1,44,-1
 157 315 l 1,45,-1
 157 236 l 1,46,-1
 157 157 l 1,47,-1
 236 157 l 1,36,-1
EndSplineSet
EndChar

StartChar: r
Encoding: 114 114 64
Width: 472
GlyphClass: 2
Flags: W
LayerCount: 2
Fore
SplineSet
79 0 m 1,0,-1
 0 0 l 1,1,-1
 0 79 l 1,2,-1
 0 157 l 1,3,-1
 0 236 l 1,4,-1
 0 315 l 1,5,-1
 0 394 l 1,6,-1
 0 472 l 1,7,-1
 0 551 l 1,8,-1
 79 551 l 1,9,-1
 79 630 l 1,10,-1
 157 630 l 1,11,-1
 236 630 l 1,12,-1
 315 630 l 1,13,-1
 315 551 l 1,14,-1
 394 551 l 1,15,-1
 394 472 l 1,16,-1
 315 472 l 1,17,-1
 236 472 l 1,18,-1
 157 472 l 1,19,-1
 157 394 l 1,20,-1
 157 315 l 1,21,-1
 157 236 l 1,22,-1
 157 157 l 1,23,-1
 157 79 l 1,24,-1
 157 0 l 1,25,-1
 79 0 l 1,0,-1
EndSplineSet
EndChar

StartChar: s
Encoding: 115 115 65
Width: 551
GlyphClass: 2
Flags: W
LayerCount: 2
Fore
SplineSet
315 0 m 1,0,-1
 236 0 l 1,1,-1
 157 0 l 1,2,-1
 79 0 l 1,3,-1
 0 0 l 1,4,-1
 0 79 l 1,5,-1
 0 157 l 1,6,-1
 79 157 l 1,7,-1
 157 157 l 1,8,-1
 236 157 l 1,9,-1
 315 157 l 1,10,-1
 315 236 l 1,11,-1
 236 236 l 1,12,-1
 157 236 l 1,13,-1
 79 236 l 1,14,-1
 79 315 l 1,15,-1
 0 315 l 1,16,-1
 0 394 l 1,17,-1
 0 472 l 1,18,-1
 0 551 l 1,19,-1
 79 551 l 1,20,-1
 79 630 l 1,21,-1
 157 630 l 1,22,-1
 236 630 l 1,23,-1
 315 630 l 1,24,-1
 394 630 l 1,25,-1
 394 551 l 1,26,-1
 472 551 l 1,27,-1
 472 472 l 1,28,-1
 394 472 l 1,29,-1
 315 472 l 1,30,-1
 236 472 l 1,31,-1
 157 472 l 1,32,-1
 157 394 l 1,33,-1
 236 394 l 1,34,-1
 315 394 l 1,35,-1
 394 394 l 1,36,-1
 394 315 l 1,37,-1
 472 315 l 1,38,-1
 472 236 l 1,39,-1
 472 157 l 1,40,-1
 472 79 l 1,41,-1
 394 79 l 1,42,-1
 394 0 l 1,43,-1
 315 0 l 1,0,-1
EndSplineSet
EndChar

StartChar: t
Encoding: 116 116 66
Width: 393
GlyphClass: 2
Flags: W
LayerCount: 2
Fore
SplineSet
236 0 m 1,0,-1
 157 0 l 1,1,-1
 79 0 l 1,2,-1
 79 79 l 1,3,-1
 79 157 l 1,4,-1
 79 236 l 1,5,-1
 79 315 l 1,6,-1
 79 394 l 1,7,-1
 79 472 l 1,8,-1
 79 551 l 1,9,-1
 0 551 l 1,10,-1
 0 630 l 1,11,-1
 0 708 l 1,12,-1
 79 708 l 1,13,-1
 79 787 l 1,14,-1
 79 866 l 1,15,-1
 157 866 l 1,16,-1
 236 866 l 1,17,-1
 236 787 l 1,18,-1
 236 708 l 1,19,-1
 315 708 l 1,20,-1
 315 630 l 1,21,-1
 315 551 l 1,22,-1
 236 551 l 1,23,-1
 236 472 l 1,24,-1
 236 394 l 1,25,-1
 236 315 l 1,26,-1
 236 236 l 1,27,-1
 236 157 l 1,28,-1
 315 157 l 1,29,-1
 315 79 l 1,30,-1
 315 0 l 1,31,-1
 236 0 l 1,0,-1
EndSplineSet
EndChar

StartChar: u
Encoding: 117 117 67
Width: 551
GlyphClass: 2
Flags: W
LayerCount: 2
Fore
SplineSet
394 0 m 1,0,-1
 315 0 l 1,1,-1
 236 0 l 1,2,-1
 157 0 l 1,3,-1
 79 0 l 1,4,-1
 79 79 l 1,5,-1
 0 79 l 1,6,-1
 0 157 l 1,7,-1
 0 236 l 1,8,-1
 0 315 l 1,9,-1
 0 394 l 1,10,-1
 0 472 l 1,11,-1
 0 551 l 1,12,-1
 0 630 l 1,13,-1
 79 630 l 1,14,-1
 157 630 l 1,15,-1
 157 551 l 1,16,-1
 157 472 l 1,17,-1
 157 394 l 1,18,-1
 157 315 l 1,19,-1
 157 236 l 1,20,-1
 157 157 l 1,21,-1
 157 79 l 1,22,-1
 236 79 l 1,23,-1
 315 79 l 1,24,-1
 315 157 l 1,25,-1
 315 236 l 1,26,-1
 315 315 l 1,27,-1
 315 394 l 1,28,-1
 315 472 l 1,29,-1
 315 551 l 1,30,-1
 315 630 l 1,31,-1
 394 630 l 1,32,-1
 472 630 l 1,33,-1
 472 551 l 1,34,-1
 472 472 l 1,35,-1
 472 394 l 1,36,-1
 472 315 l 1,37,-1
 472 236 l 1,38,-1
 472 157 l 1,39,-1
 472 79 l 1,40,-1
 472 0 l 1,41,-1
 394 0 l 1,0,-1
EndSplineSet
EndChar

StartChar: v
Encoding: 118 118 68
Width: 629
GlyphClass: 2
Flags: W
LayerCount: 2
Fore
SplineSet
236 0 m 1,0,-1
 236 79 l 1,1,-1
 157 79 l 1,2,-1
 157 157 l 1,3,-1
 79 157 l 1,4,-1
 79 236 l 1,5,-1
 79 315 l 1,6,-1
 0 315 l 1,7,-1
 0 394 l 1,8,-1
 0 472 l 1,9,-1
 0 551 l 1,10,-1
 0 630 l 1,11,-1
 79 630 l 1,12,-1
 157 630 l 1,13,-1
 157 551 l 1,14,-1
 157 472 l 1,15,-1
 157 394 l 1,16,-1
 157 315 l 1,17,-1
 236 315 l 1,18,-1
 236 236 l 1,19,-1
 315 236 l 1,20,-1
 315 315 l 1,21,-1
 394 315 l 1,22,-1
 394 394 l 1,23,-1
 394 472 l 1,24,-1
 394 551 l 1,25,-1
 394 630 l 1,26,-1
 472 630 l 1,27,-1
 551 630 l 1,28,-1
 551 551 l 1,29,-1
 551 472 l 1,30,-1
 551 394 l 1,31,-1
 551 315 l 1,32,-1
 472 315 l 1,33,-1
 472 236 l 1,34,-1
 472 157 l 1,35,-1
 394 157 l 1,36,-1
 394 79 l 1,37,-1
 315 79 l 1,38,-1
 315 0 l 1,39,-1
 236 0 l 1,0,-1
EndSplineSet
EndChar

StartChar: w
Encoding: 119 119 69
Width: 944
GlyphClass: 2
Flags: W
LayerCount: 2
Fore
SplineSet
708 0 m 1,0,-1
 630 0 l 1,1,-1
 551 0 l 1,2,-1
 551 79 l 1,3,-1
 551 157 l 1,4,-1
 472 157 l 1,5,-1
 472 236 l 1,6,-1
 472 315 l 1,7,-1
 394 315 l 1,8,-1
 394 236 l 1,9,-1
 394 157 l 1,10,-1
 315 157 l 1,11,-1
 315 79 l 1,12,-1
 315 0 l 1,13,-1
 236 0 l 1,14,-1
 157 0 l 1,15,-1
 79 0 l 1,16,-1
 79 79 l 1,17,-1
 79 157 l 1,18,-1
 79 236 l 1,19,-1
 79 315 l 1,20,-1
 0 315 l 1,21,-1
 0 394 l 1,22,-1
 0 472 l 1,23,-1
 0 551 l 1,24,-1
 0 630 l 1,25,-1
 79 630 l 1,26,-1
 157 630 l 1,27,-1
 157 551 l 1,28,-1
 157 472 l 1,29,-1
 157 394 l 1,30,-1
 157 315 l 1,31,-1
 157 236 l 1,32,-1
 236 236 l 1,33,-1
 236 315 l 1,34,-1
 315 315 l 1,35,-1
 315 394 l 1,36,-1
 315 472 l 1,37,-1
 394 472 l 1,38,-1
 472 472 l 1,39,-1
 551 472 l 1,40,-1
 551 394 l 1,41,-1
 551 315 l 1,42,-1
 630 315 l 1,43,-1
 630 236 l 1,44,-1
 708 236 l 1,45,-1
 708 315 l 1,46,-1
 708 394 l 1,47,-1
 708 472 l 1,48,-1
 708 551 l 1,49,-1
 708 630 l 1,50,-1
 787 630 l 1,51,-1
 866 630 l 1,52,-1
 866 551 l 1,53,-1
 866 472 l 1,54,-1
 866 394 l 1,55,-1
 866 315 l 1,56,-1
 787 315 l 1,57,-1
 787 236 l 1,58,-1
 787 157 l 1,59,-1
 787 79 l 1,60,-1
 787 0 l 1,61,-1
 708 0 l 1,0,-1
EndSplineSet
EndChar

StartChar: x
Encoding: 120 120 70
Width: 629
GlyphClass: 2
Flags: W
LayerCount: 2
Fore
SplineSet
472 0 m 1,0,-1
 394 0 l 1,1,-1
 394 79 l 1,2,-1
 315 79 l 1,3,-1
 315 157 l 1,4,-1
 315 236 l 1,5,-1
 236 236 l 1,6,-1
 236 157 l 1,7,-1
 236 79 l 1,8,-1
 157 79 l 1,9,-1
 157 0 l 1,10,-1
 79 0 l 1,11,-1
 0 0 l 1,12,-1
 0 79 l 1,13,-1
 79 79 l 1,14,-1
 79 157 l 1,15,-1
 79 236 l 1,16,-1
 157 236 l 1,17,-1
 157 315 l 1,18,-1
 157 394 l 1,19,-1
 79 394 l 1,20,-1
 79 472 l 1,21,-1
 79 551 l 1,22,-1
 0 551 l 1,23,-1
 0 630 l 1,24,-1
 79 630 l 1,25,-1
 157 630 l 1,26,-1
 157 551 l 1,27,-1
 236 551 l 1,28,-1
 236 472 l 1,29,-1
 236 394 l 1,30,-1
 315 394 l 1,31,-1
 315 472 l 1,32,-1
 315 551 l 1,33,-1
 394 551 l 1,34,-1
 394 630 l 1,35,-1
 472 630 l 1,36,-1
 551 630 l 1,37,-1
 551 551 l 1,38,-1
 472 551 l 1,39,-1
 472 472 l 1,40,-1
 472 394 l 1,41,-1
 394 394 l 1,42,-1
 394 315 l 1,43,-1
 394 236 l 1,44,-1
 472 236 l 1,45,-1
 472 157 l 1,46,-1
 472 79 l 1,47,-1
 551 79 l 1,48,-1
 551 0 l 1,49,-1
 472 0 l 1,0,-1
EndSplineSet
EndChar

StartChar: y
Encoding: 121 121 71
Width: 708
GlyphClass: 2
Flags: W
LayerCount: 2
Fore
SplineSet
236 -157 m 1,0,-1
 157 -157 l 1,1,-1
 79 -157 l 1,2,-1
 79 -79 l 1,3,-1
 79 0 l 1,4,-1
 157 0 l 1,5,-1
 236 0 l 1,6,-1
 236 79 l 1,7,-1
 236 157 l 1,8,-1
 157 157 l 1,9,-1
 157 236 l 1,10,-1
 157 315 l 1,11,-1
 79 315 l 1,12,-1
 79 394 l 1,13,-1
 79 472 l 1,14,-1
 0 472 l 1,15,-1
 0 551 l 1,16,-1
 0 630 l 1,17,-1
 79 630 l 1,18,-1
 157 630 l 1,19,-1
 157 551 l 1,20,-1
 157 472 l 1,21,-1
 236 472 l 1,22,-1
 236 394 l 1,23,-1
 236 315 l 1,24,-1
 315 315 l 1,25,-1
 394 315 l 1,26,-1
 394 394 l 1,27,-1
 394 472 l 1,28,-1
 472 472 l 1,29,-1
 472 551 l 1,30,-1
 472 630 l 1,31,-1
 551 630 l 1,32,-1
 630 630 l 1,33,-1
 630 551 l 1,34,-1
 630 472 l 1,35,-1
 551 472 l 1,36,-1
 551 394 l 1,37,-1
 551 315 l 1,38,-1
 472 315 l 1,39,-1
 472 236 l 1,40,-1
 472 157 l 1,41,-1
 394 157 l 1,42,-1
 394 79 l 1,43,-1
 394 0 l 1,44,-1
 394 -79 l 1,45,-1
 315 -79 l 1,46,-1
 315 -157 l 1,47,-1
 236 -157 l 1,0,-1
EndSplineSet
EndChar

StartChar: z
Encoding: 122 122 72
Width: 551
GlyphClass: 2
Flags: W
LayerCount: 2
Fore
SplineSet
394 0 m 1,0,-1
 315 0 l 1,1,-1
 236 0 l 1,2,-1
 157 0 l 1,3,-1
 79 0 l 1,4,-1
 79 79 l 1,5,-1
 79 157 l 1,6,-1
 79 236 l 1,7,-1
 157 236 l 1,8,-1
 157 315 l 1,9,-1
 236 315 l 1,10,-1
 236 394 l 1,11,-1
 315 394 l 1,12,-1
 315 472 l 1,13,-1
 236 472 l 1,14,-1
 157 472 l 1,15,-1
 79 472 l 1,16,-1
 79 551 l 1,17,-1
 79 630 l 1,18,-1
 157 630 l 1,19,-1
 236 630 l 1,20,-1
 315 630 l 1,21,-1
 394 630 l 1,22,-1
 472 630 l 1,23,-1
 472 551 l 1,24,-1
 472 472 l 1,25,-1
 472 394 l 1,26,-1
 394 394 l 1,27,-1
 394 315 l 1,28,-1
 315 315 l 1,29,-1
 315 236 l 1,30,-1
 236 236 l 1,31,-1
 236 157 l 1,32,-1
 315 157 l 1,33,-1
 394 157 l 1,34,-1
 472 157 l 1,35,-1
 472 79 l 1,36,-1
 472 0 l 1,37,-1
 394 0 l 1,0,-1
EndSplineSet
EndChar

